<?xml version="1.0" encoding="utf-8"?>
<!-- Generator: Adobe Illustrator 17.0.0, SVG Export Plug-In . SVG Version: 6.00 Build 0)  -->
<!DOCTYPE svg PUBLIC "-//W3C//DTD SVG 1.1//EN" "http://www.w3.org/Graphics/SVG/1.1/DTD/svg11.dtd">
<svg version="1.1" id="Layer_1" xmlns="http://www.w3.org/2000/svg" xmlns:xlink="http://www.w3.org/1999/xlink" x="0px" y="0px"
	 width="130px" height="130px" viewBox="0 0 130 130" enable-background="new 0 0 130 130" xml:space="preserve">
<g id="drinks">
	<path id="glass" fill="none" stroke="#F9F6BB" stroke-width="0.8704" stroke-miterlimit="10" d="M99.862,35.109V23.586
		c0-0.633-0.257-1.252-0.702-1.699c-0.448-0.448-1.067-0.704-1.699-0.704H51.372c-0.634,0-1.25,0.257-1.699,0.704
		c-0.446,0.448-0.704,1.067-0.704,1.699v11.522c0.008,34.906,8.669,89.611,8.673,89.675c0.185,1.167,1.19,2.028,2.375,2.028h28.805
		c1.18,0,2.187-0.861,2.374-2.028C91.195,124.718,99.852,70.013,99.862,35.109z M87.79,114.976c-0.438,3.07-0.797,5.47-1.035,7.028
		H62.074c-0.238-1.556-0.595-3.958-1.033-7.028c-2.426-16.957-7.274-54.214-7.27-79.867V22.788h41.283l0.004,12.321
		c0,17.092-2.151,39.372-4.305,57.327C89.677,101.413,88.598,109.319,87.79,114.976z"/>
	<path id="juice_1_" fill="#F9D987" d="M55.509,35.109L55.509,35.109c-0.006,21.224,3.361,50.581,5.786,68.985
		c1.056,7.532,1.805,12.404,1.805,12.404s0.204,2.536,2.266,2.536c2.058,0,16.532,0,18.282,0c1.752,0,2.111-2.479,2.111-2.479
		s1.318-9.252,2.949-21.688c0.108-0.867,0.213-1.745,0.321-2.636c1.958-16.309,4.292-39.457,4.292-57.118l0,0H55.509V35.109z
		 M79.378,54.488c0.631,0,1.146,0.512,1.146,1.144c0,0.631-0.515,1.144-1.146,1.144s-1.142-0.514-1.142-1.144
		C78.234,54.999,78.747,54.488,79.378,54.488z M74.716,41.882c0.631,0,1.142,0.512,1.142,1.144c0,0.631-0.512,1.144-1.142,1.144
		c-0.634,0-1.146-0.514-1.146-1.144C73.57,42.393,74.082,41.882,74.716,41.882z M75.275,89.947c0,0.631-0.514,1.146-1.144,1.146
		c-0.634,0-1.144-0.515-1.144-1.146c0-0.634,0.512-1.142,1.144-1.142C74.759,88.805,75.275,89.313,75.275,89.947z M73.528,68.398
		c0,0.631-0.515,1.144-1.144,1.144c-0.633,0-1.144-0.514-1.144-1.144c0-0.634,0.512-1.142,1.144-1.142
		C73.013,67.254,73.528,67.764,73.528,68.398z M70.635,80.366l0.208,1.295l-2.819,2.819l-0.208-1.295L70.635,80.366z M67.592,81.775
		l-0.206-1.295l2.817-2.817l0.206,1.295L67.592,81.775z M71.068,83.07l0.206,1.295l-2.817,2.817l-0.206-1.293L71.068,83.07z
		 M71.502,85.776l0.206,1.295l-2.819,2.817l-0.206-1.295L71.502,85.776z M71.901,60.507c0,0.631-0.514,1.146-1.144,1.146
		c-0.634,0-1.146-0.515-1.146-1.146c0-0.633,0.512-1.144,1.146-1.144C71.385,59.363,71.901,59.875,71.901,60.507z M70.054,46.691
		c0.629,0,1.142,0.512,1.142,1.144c0,0.631-0.514,1.144-1.142,1.144c-0.634,0-1.146-0.514-1.146-1.144
		C68.908,47.201,69.419,46.691,70.054,46.691z M69.11,70.842l-2.817,2.819l-0.208-1.295l2.819-2.819L69.11,70.842z M67.603,61.433
		l0.208,1.295l-2.819,2.819l-0.208-1.295L67.603,61.433z M64.559,62.841l-0.206-1.293l2.817-2.819l0.208,1.293L64.559,62.841z
		 M65.666,66.51l2.372-2.372l0.206,1.293l-1.112,1.114c0.172,0.183,0.278,0.429,0.278,0.697c0,0.568-0.461,1.029-1.027,1.029
		c-0.272,0-0.515-0.108-0.699-0.278l-0.259,0.257l-0.206-1.295l0.427-0.429C65.652,66.523,65.658,66.518,65.666,66.51z
		 M68.47,66.844l0.206,1.293l-2.819,2.819l-0.206-1.295L68.47,66.844z M67.85,41.976c0.544,0,0.986,0.44,0.986,0.988
		c0,0.546-0.442,0.991-0.986,0.991c-0.549,0-0.989-0.446-0.989-0.991C66.861,42.418,67.301,41.976,67.85,41.976z M66.51,54.614
		l-2.815,2.817l-0.208-1.293l2.819-2.817L66.51,54.614z M66.079,51.91l-2.817,2.817l-0.206-1.295l2.817-2.817L66.079,51.91z
		 M65.212,46.5l-2.817,2.819l-0.206-1.295l2.817-2.819L65.212,46.5z M64.78,43.795l-2.819,2.819l-0.206-1.293l2.819-2.817
		L64.78,43.795z M59.436,62.296c-0.631,0-1.142-0.514-1.142-1.144c0-0.633,0.512-1.144,1.142-1.144c0.633,0,1.146,0.512,1.146,1.144
		C60.584,61.78,60.069,62.296,59.436,62.296z M60.397,36.844h1.922L60.664,38.5L60.397,36.844z M60.89,39.91l2.817-2.819
		l0.206,1.295l-0.678,0.678c0.344,0.187,0.583,0.538,0.6,0.957c0,0.028-0.004,0.055-0.006,0.083l0.308-0.31l0.208,1.295
		l-2.819,2.819l-0.206-1.295l1.403-1.403c-0.444,0.013-0.835-0.232-1.037-0.6l-0.591,0.593L60.89,39.91z M61.17,51.132
		c0-0.633,0.512-1.144,1.146-1.144c0.289,0,0.553,0.113,0.753,0.291l2.37-2.366l0.204,1.293l-2.232,2.232
		c-0.134,0.483-0.574,0.842-1.097,0.842C61.683,52.278,61.17,51.763,61.17,51.132z M62.635,73.444c-0.634,0-1.142-0.515-1.142-1.144
		c0-0.634,0.51-1.144,1.142-1.144c0.631,0,1.146,0.512,1.146,1.144C63.781,72.927,63.264,73.444,62.635,73.444z M63.919,58.844
		l2.819-2.819l0.206,1.293l-2.817,2.819L63.919,58.844z M65.241,82.224c-0.634,0-1.142-0.515-1.142-1.146s0.51-1.142,1.142-1.142
		c0.631,0,1.144,0.512,1.144,1.142S65.871,82.224,65.241,82.224z M66.517,75.072l2.817-2.819l0.206,1.295l-2.817,2.817
		L66.517,75.072z M69.769,74.958l0.208,1.295l-2.817,2.817l-0.208-1.295L69.769,74.958z M68.13,100.501
		c-0.549,0-0.988-0.444-0.988-0.986c0-0.549,0.438-0.991,0.988-0.991c0.546,0,0.988,0.442,0.988,0.991
		C69.117,100.057,68.675,100.501,68.13,100.501z M69.115,91.299l2.819-2.817l0.206,1.293l-2.817,2.817L69.115,91.299z M69.55,94.005
		l2.817-2.817l0.206,1.293L69.756,95.3L69.55,94.005z M69.98,96.709l2.819-2.819l0.206,1.295l-2.819,2.817L69.98,96.709z
		 M70.415,99.415l2.819-2.819l0.206,1.295l-2.817,2.817L70.415,99.415z M70.847,102.117l2.817-2.817l0.208,1.295l-2.819,2.817
		L70.847,102.117z M71.281,104.823l2.819-2.819l0.206,1.293l-2.819,2.819L71.281,104.823z M71.714,107.529l2.817-2.819l0.206,1.293
		l-2.817,2.821L71.714,107.529z M72.146,110.231l2.819-2.817l0.208,1.295l-2.821,2.817L72.146,110.231z M72.58,112.935l2.817-2.817
		l0.206,1.295l-2.817,2.817L72.58,112.935z M73.013,115.643l2.817-2.817l0.208,1.295l-2.819,2.817L73.013,115.643z M74.52,117.272
		l1.745-1.745l0.228,1.431L74.52,117.272z M76.746,109.3c-0.633,0-1.144-0.514-1.144-1.144c0-0.634,0.512-1.142,1.144-1.142
		c0.629,0,1.144,0.51,1.144,1.142C77.892,108.786,77.375,109.3,76.746,109.3z M77.622,70.179c0-0.634,0.512-1.144,1.142-1.144
		s1.146,0.512,1.146,1.144c0,0.631-0.515,1.144-1.146,1.144C78.134,71.325,77.622,70.81,77.622,70.179z M80.098,98.913
		c-0.633,0-1.142-0.514-1.142-1.142c0-0.634,0.512-1.146,1.142-1.146s1.146,0.512,1.146,1.146
		C81.244,98.399,80.728,98.913,80.098,98.913z M80.233,83.04c-0.634,0-1.142-0.515-1.142-1.146c0-0.633,0.51-1.142,1.142-1.142
		c0.631,0,1.144,0.512,1.144,1.142C81.378,82.523,80.864,83.04,80.233,83.04z M84.293,66.178c-0.634,0-1.144-0.514-1.144-1.144
		c0-0.633,0.512-1.144,1.144-1.144c0.631,0,1.144,0.512,1.144,1.144C85.439,65.664,84.924,66.178,84.293,66.178z M85.362,46.202
		c-0.633,0-1.142-0.515-1.142-1.146c0-0.633,0.512-1.144,1.142-1.144s1.146,0.512,1.146,1.144
		C86.508,45.687,85.995,46.202,85.362,46.202z"/>
	<g id="straw">
		<path fill="none" stroke="#FFFFFF" stroke-width="0.8704" stroke-miterlimit="10" d="M56.636,16.704
			c-0.083,0.096-0.07,0.242,0.028,0.325c0.043,0.038,0.096,0.057,0.147,0.057c0.066,0,0.13-0.028,0.178-0.081l0.1-0.117l0.019,0.009
			l-0.042,0.042c-0.091,0.089-0.091,0.236-0.002,0.327c0.043,0.045,0.106,0.068,0.164,0.068c0.015,0,0.028-0.004,0.042-0.008
			l0.089,0.606c-0.011,0.055-0.006,0.115,0.026,0.168l0.202,1.337h3.265l-0.432-2.863l0.502-0.296
			c0.11-0.064,0.144-0.206,0.079-0.315c-0.064-0.11-0.206-0.145-0.315-0.081l-0.34,0.2l-0.072-0.476l0.4-0.315
			c0.1-0.077,0.117-0.223,0.04-0.323c-0.079-0.102-0.223-0.117-0.323-0.04l-0.196,0.153l-0.07-0.436l-0.094,0.015l0.217-0.217
			c0.091-0.089,0.093-0.236,0.004-0.327c-0.091-0.091-0.236-0.091-0.327-0.002l-0.355,0.349l-0.302-0.138l0.344-0.404
			c0.081-0.096,0.07-0.242-0.026-0.325c-0.098-0.083-0.244-0.072-0.325,0.026l-0.431,0.504L31.445,1.688l-1.307,2.946l26.515,12.053
			L56.636,16.704z"/>
		<polygon fill="none" stroke="#FFFFFF" stroke-width="0.8704" stroke-miterlimit="10" points="58.347,24.527 59.684,33.371 
			62.948,33.371 61.613,24.527 		"/>
	</g>
</g>
</svg>
