<?xml version="1.0" encoding="utf-8"?>
<!-- Generator: Adobe Illustrator 17.0.0, SVG Export Plug-In . SVG Version: 6.00 Build 0)  -->
<!DOCTYPE svg PUBLIC "-//W3C//DTD SVG 1.1//EN" "http://www.w3.org/Graphics/SVG/1.1/DTD/svg11.dtd">
<svg version="1.1" id="Layer_1" xmlns="http://www.w3.org/2000/svg" xmlns:xlink="http://www.w3.org/1999/xlink" x="0px" y="0px"
	 width="130px" height="130px" viewBox="0 0 130 130" enable-background="new 0 0 130 130" xml:space="preserve">
<g id="collaboration">
	<path id="person_1" inkscape:connector-curvature="0" fill="#DCC359" d="M10.059,84.22v31.299c0,2.438,2.04,4.481,4.476,4.481
		h2.698c2.435,0,4.476-2.043,4.476-4.481V84.22h3.093V52.921l5.529,5.535c1.053,1.054,2.567,1.45,3.949,1.252l0,0h0.066h0.066h0.066
		h0.066h0.066c0.395-0.066,0.79-0.264,1.185-0.461l15.467-8.962c2.106-1.252,2.83-3.954,1.645-6.128l0,0
		c-1.251-2.109-3.949-2.833-6.121-1.647l-12.505,7.248L23.156,38.819c-1.974-1.911-4.278-3.69-7.24-3.69
		c-4.936,0-8.951,4.02-8.951,8.962v40.195h3.093L10.059,84.22z"/>
	<path id="merson_2" inkscape:connector-curvature="0" fill="#DCC359" d="M78.245,58.324l16.059-4.283l7.766-7.775l-0.066-0.461
		c-0.724-4.876,2.698-9.423,7.569-10.148s9.412,2.702,10.136,7.578l5.726,39.8l-3.028,0.461v32.024c0,2.438-2.04,4.481-4.475,4.481
		h-2.698c-2.435,0-4.476-2.043-4.476-4.481V85.208l-3.028,0.461l-4.081-28.334l-3.488,3.492c-0.592,0.725-1.382,1.252-2.304,1.516
		l-17.31,4.613c-2.369,0.659-4.805-0.791-5.463-3.163C74.427,61.421,75.875,58.983,78.245,58.324z"/>
	<path id="box_3" fill="#FCF6CA" d="M57.118,90.15H75.02c3.271,0,5.923,2.655,5.923,5.93v17.923c0,3.275-2.652,5.93-5.923,5.93
		H57.118c-3.271,0-5.923-2.655-5.923-5.93V96.081C51.194,92.806,53.846,90.15,57.118,90.15z"/>
	<path id="box_2" inkscape:connector-curvature="0" fill="#FCF6CA" d="M57.118,57.401h17.836c0.461,0,0.856,0.066,1.316,0.132
		c-2.172,1.318-3.357,4.019-2.633,6.589c0.856,3.163,4.146,5.074,7.306,4.217v12.849c0,3.295-2.698,5.93-5.923,5.93H57.183
		c-3.291,0-5.923-2.702-5.923-5.93V63.332c0-3.295,2.698-5.93,5.923-5.93H57.118z"/>
	<path id="holded_box" inkscape:connector-curvature="0" fill="#FCF6CA" d="M36.385,31.703l15.401-9.093
		c2.83-1.647,6.516-0.725,8.161,2.109l9.083,15.419c1.645,2.833,0.724,6.523-2.106,8.171l-15.401,9.093
		c-2.567,1.516-5.726,0.857-7.569-1.318l8.03-4.613c2.83-1.647,3.817-5.337,2.172-8.171c-1.645-2.833-5.331-3.822-8.161-2.174
		l-8.161,4.744l-3.488-5.996c-1.645-2.833-0.724-6.523,2.106-8.171L36.385,31.703z"/>
	<circle id="head_2_1_" fill="#F1E08F" cx="103.847" cy="24.587" r="10.553"/>
	<circle id="head_1_1_" fill="#F1E08F" cx="14.388" cy="21.773" r="10.553"/>
</g>
</svg>
