<?xml version="1.0" encoding="utf-8"?>
<!-- Generator: Adobe Illustrator 17.0.0, SVG Export Plug-In . SVG Version: 6.00 Build 0)  -->
<!DOCTYPE svg PUBLIC "-//W3C//DTD SVG 1.1//EN" "http://www.w3.org/Graphics/SVG/1.1/DTD/svg11.dtd">
<svg version="1.1" id="Layer_1" xmlns="http://www.w3.org/2000/svg" xmlns:xlink="http://www.w3.org/1999/xlink" x="0px" y="0px"
	 width="130px" height="130px" viewBox="0 0 130 130" enable-background="new 0 0 130 130" xml:space="preserve">
<g id="Layer_5">
	<g>
		<path id="socket_plug_and_wire" fill="#F9D987" d="M106.804,54.803c0-0.564-0.457-1.02-1.019-1.02h-4.079V42.058
			c0-1.968-1.601-3.569-3.569-3.569s-3.569,1.601-3.569,3.569v11.725H91.51V42.058c0-1.968-1.601-3.569-3.569-3.569
			s-3.569,1.601-3.569,3.569v11.725h-4.078c-0.564,0-1.019,0.457-1.019,1.02V65c0,0.133,0.026,0.265,0.078,0.389
			c0.052,0.124,0.127,0.238,0.22,0.332l4.799,4.799v4.674c0,0,0,0.001,0,0.002c0,0.564,0.457,1.02,1.02,1.02h4.079v34.668
			c0,5.059-4.116,9.177-9.177,9.177H54.803c-4.715,0-8.607-3.576-9.117-8.157h9.117c3.374,0,6.118-2.744,6.118-6.118V8.92
			c0-3.374-2.744-6.118-6.118-6.118h-25.49c-3.374,0-6.118,2.744-6.118,6.118v96.865c0,3.374,2.744,6.118,6.118,6.118h9.228
			c0.531,8.52,7.612,15.294,16.262,15.294h25.491c8.995,0,16.314-7.318,16.314-16.314V76.217h4.078l0,0l0,0
			c0.564,0,1.02-0.457,1.02-1.02v-4.676l4.799-4.799c0.093-0.095,0.169-0.208,0.22-0.332c0.052-0.126,0.078-0.257,0.078-0.389
			L106.804,54.803z M96.607,42.059c0-0.843,0.687-1.53,1.53-1.53s1.529,0.687,1.529,1.53v11.725h-3.059V42.059z M86.412,42.059
			c0-0.843,0.685-1.53,1.529-1.53c0.843,0,1.529,0.687,1.529,1.53v11.725h-3.059V42.059H86.412z M104.765,55.823v8.755l-4.799,4.799
			c-0.093,0.095-0.168,0.208-0.22,0.332c-0.052,0.124-0.078,0.257-0.078,0.389v4.079H86.412v-4.079c0-0.132-0.026-0.265-0.078-0.389
			c-0.052-0.124-0.127-0.238-0.22-0.332l-4.799-4.799v-8.755H104.765z M25.235,105.785V8.92c0-2.249,1.83-4.079,4.079-4.079h25.491
			c2.249,0,4.079,1.83,4.079,4.079v96.865c0,2.249-1.83,4.078-4.079,4.078H29.314C27.065,109.863,25.235,108.034,25.235,105.785z
			 M94.57,110.883c0,7.872-6.404,14.276-14.276,14.276H54.803c-7.527,0-13.697-5.86-14.223-13.256h3.059
			c0.517,5.707,5.324,10.197,11.164,10.197h25.491c6.185,0,11.217-5.032,11.217-11.217V76.217h3.059V110.883z"/>
		<path id="socket_hole_3_1_" fill="#FFFFFF" d="M36.96,60.921c1.968,0,3.569-1.601,3.569-3.569s-1.602-3.569-3.569-3.569
			c-1.967,0-3.569,1.601-3.569,3.569C33.391,59.32,34.992,60.921,36.96,60.921z M36.96,55.823c0.843,0,1.529,0.685,1.529,1.529
			s-0.685,1.529-1.529,1.529c-0.843,0-1.529-0.687-1.529-1.529C35.43,56.509,36.117,55.823,36.96,55.823z"/>
		<path id="socket_hole_2_1_" fill="#FFFFFF" d="M47.157,60.921c1.968,0,3.569-1.601,3.569-3.569s-1.601-3.569-3.569-3.569
			s-3.569,1.601-3.569,3.569C43.588,59.32,45.189,60.921,47.157,60.921z M47.157,55.823c0.843,0,1.529,0.685,1.529,1.529
			S48,58.881,47.157,58.881s-1.529-0.687-1.529-1.529C45.627,56.509,46.313,55.823,47.157,55.823z"/>
		<path id="socket_ring_3" fill="#F7B46B" d="M42.059,71.118c7.589,0,13.764-6.175,13.764-13.764s-6.175-13.764-13.764-13.764
			c-7.591,0-13.766,6.175-13.766,13.764S34.469,71.118,42.059,71.118z M42.059,45.627c6.466,0,11.725,5.261,11.725,11.725
			s-5.259,11.725-11.725,11.725s-11.725-5.261-11.725-11.725S35.592,45.627,42.059,45.627z"/>
		<path id="socket_hole4" fill="#FFFFFF" d="M36.96,84.373c-1.968,0-3.569,1.601-3.569,3.569s1.601,3.569,3.569,3.569
			c1.968,0,3.569-1.601,3.569-3.569S38.928,84.373,36.96,84.373z M36.96,89.471c-0.843,0-1.529-0.687-1.529-1.53
			s0.687-1.529,1.529-1.529c0.843,0,1.529,0.687,1.529,1.529C38.489,88.786,37.804,89.471,36.96,89.471z"/>
		<path id="socket_hole_3" fill="#FFFFFF" d="M47.157,91.511c1.968,0,3.569-1.601,3.569-3.569s-1.601-3.569-3.569-3.569
			s-3.569,1.601-3.569,3.569C43.588,89.909,45.189,91.511,47.157,91.511z M47.157,86.412c0.843,0,1.529,0.687,1.529,1.529
			c0,0.843-0.685,1.53-1.529,1.53s-1.529-0.687-1.529-1.53C45.627,87.099,46.313,86.412,47.157,86.412z"/>
		<path id="socket_ring_2" fill="#F7B46B" d="M55.823,87.941c0-7.589-6.175-13.764-13.764-13.764
			c-7.591,0-13.766,6.175-13.766,13.764c0,7.591,6.175,13.766,13.766,13.766C49.648,101.706,55.823,95.531,55.823,87.941z
			 M30.332,87.941c0-6.466,5.259-11.725,11.725-11.725s11.725,5.259,11.725,11.725s-5.259,11.725-11.725,11.725
			C35.592,99.668,30.332,94.408,30.332,87.941z"/>
		<path id="socket_hole_2" fill="#FFFFFF" d="M36.96,30.332c1.968,0,3.569-1.601,3.569-3.569s-1.602-3.569-3.569-3.569
			c-1.967,0-3.569,1.601-3.569,3.569S34.992,30.332,36.96,30.332z M36.96,25.235c0.843,0,1.529,0.687,1.529,1.529
			c0,0.843-0.685,1.529-1.529,1.529c-0.843,0-1.529-0.685-1.529-1.529C35.43,25.92,36.117,25.235,36.96,25.235z"/>
		<path id="socket_hole_1" fill="#FFFFFF" d="M47.157,30.332c1.968,0,3.569-1.601,3.569-3.569s-1.601-3.569-3.569-3.569
			s-3.569,1.601-3.569,3.569S45.189,30.332,47.157,30.332z M47.157,25.235c0.843,0,1.529,0.687,1.529,1.529
			c0,0.843-0.685,1.529-1.529,1.529s-1.529-0.685-1.529-1.529C45.627,25.92,46.313,25.235,47.157,25.235z"/>
		<path id="socket_ring_1" fill="#F7B46B" d="M42.059,40.529c7.589,0,13.764-6.175,13.764-13.764s-6.175-13.766-13.764-13.766
			c-7.591,0-13.766,6.175-13.766,13.764S34.469,40.529,42.059,40.529z M42.059,15.038c6.466,0,11.725,5.261,11.725,11.725
			s-5.259,11.725-11.725,11.725s-11.725-5.261-11.725-11.725S35.592,15.038,42.059,15.038z"/>
	</g>
</g>
</svg>
