<?xml version="1.0" encoding="utf-8"?>
<!-- Generator: Adobe Illustrator 17.0.0, SVG Export Plug-In . SVG Version: 6.00 Build 0)  -->
<!DOCTYPE svg PUBLIC "-//W3C//DTD SVG 1.1//EN" "http://www.w3.org/Graphics/SVG/1.1/DTD/svg11.dtd">
<svg version="1.1" id="Layer_1" xmlns="http://www.w3.org/2000/svg" xmlns:xlink="http://www.w3.org/1999/xlink" x="0px" y="0px"
	 width="130px" height="130px" viewBox="0 0 130 130" enable-background="new 0 0 130 130" xml:space="preserve">
<g id="food_and_drinks">
	<path id="bread_4" fill="#A58153" d="M116.47,110.478c0.972-0.869,0.669-1.794-0.198-2.518c0.028,0.147,0.053,0.294,0.093,0.433
		c-0.228-0.804-0.26-1.744-0.101-2.958c-0.032,0.245-0.051,0.471-0.068,0.694l3.511,5.692c0.087,0.141,0.133,0.293,0.198,0.441
		c0.152,0.442,0.247,1.035,0.279,1.762c-0.05,0.46-0.163,0.916-0.401,1.342c-0.628,1.124-1.769,1.794-3.058,1.794H52.668
		c-1.209,0-2.317-0.611-2.962-1.634c-0.164-0.26-0.283-0.538-0.37-0.822h13.757c1.493,0.734,3.641,1.016,4.684,0.404
		c0.229-0.135,0.459-0.27,0.688-0.404h3.652c0.449,1.8,4.933,2.899,6.302,1.833c0.785-0.611,1.57-1.222,2.354-1.833h3.791
		c0.153,2.18,5.499,2.7,6.812,1.433c0.496-0.478,0.991-0.957,1.487-1.433h0.517c0.235,2.082,5.521,2.943,6.787,1.433
		c0.401-0.478,0.803-0.957,1.204-1.433h1.374c0.491,2.06,4.773,2.991,6.213,1.833c0.76-0.611,1.519-1.222,2.279-1.833h0.326
		c1.574,0,3.019-0.716,3.961-1.964C116.036,112.071,116.343,111.288,116.47,110.478z"/>
	<path id="bread_3" fill="#A58153" d="M104.17,85.659c1.225,0,2.337,0.622,2.98,1.664l7.398,11.995
		c0.087,0.141,0.133,0.294,0.199,0.441c0.152,0.442,0.247,1.034,0.279,1.76c-0.05,0.46-0.163,0.916-0.401,1.344
		c-0.628,1.124-1.769,1.796-3.058,1.796h-64.06c-1.208,0-2.317-0.611-2.961-1.632c-0.31-0.491-0.48-1.038-0.524-1.594
		c0.032-0.532,0.088-0.98,0.173-1.324c0.048-0.153,0.082-0.311,0.152-0.459l5.722-11.995c0.578-1.211,1.819-1.995,3.16-1.995
		L104.17,85.659z"/>
	<path id="glass_4" fill="none" stroke="#F9F6BB" stroke-width="0.788" stroke-miterlimit="10" d="M57.38,84.185h-1.229
		c0.305-12.115,0.666-27.222,0.54-31.447c-0.062-2.102-1.881-3.707-3.537-4.72l3.786-11.256c0.821-0.274,1.559-0.568,2.209-0.883
		C59.132,36.327,58.09,64.674,57.38,84.185z"/>
	<path id="juice_upper" fill="#F9D987" d="M50.561,57.55c0.004-0.001,0.008-0.004,0.012-0.006c-0.004,0.001-0.012,0.006-0.015,0.007
		c-7.145,3.127-15.892,3.327-23.491,2.195c-3.07-0.458-6.201-1.193-8.98-2.614c-1.516-0.775-3.572-2.029-3.832-3.898
		c-0.232-1.675,1.32-3.008,2.571-3.823c2.505-1.632,5.53-2.469,8.436-3.031c7.543-1.46,16.093-1.359,23.414,1.151
		c-0.864,2.553-1.703,5.116-2.579,7.665c-0.147,0.427,0.111,0.904,0.557,0.977c1.06,0.171,2.163,0.188,3.23,0.098
		c0.297-0.025,0.549-0.231,0.646-0.511c0.724-2.118,1.439-4.237,2.154-6.357c1.402,0.903,3.12,2.459,2.481,4.319
		c-0.654,1.905-2.879,3.064-4.59,3.822C50.817,57.436,53.352,56.317,50.561,57.55z"/>
	<path id="straw_3" fill="none" stroke="#FFFFFF" stroke-width="0.788" stroke-miterlimit="10" d="M47.689,60.099l-14.82,41.337
		c-0.117,0.31-0.456,0.516-0.839,0.545c-0.478,0-1.174-0.294-0.972-0.898l14.509-40.439C46.229,60.533,47.085,60.4,47.689,60.099z"
		/>
	<path id="straw_2" fill="none" stroke="#FFFFFF" stroke-width="0.788" stroke-miterlimit="10" d="M53.566,37.676
		c0.575-0.117,1.135-0.25,1.65-0.398l-3.374,10.003c-0.839,2.516-1.702,5.024-2.534,7.543c-0.503,0.039-1.015,0.011-1.518-0.015
		C49.712,49.097,51.643,43.389,53.566,37.676z"/>
	<path fill="none" stroke="#F9F6BB" stroke-width="0.788" stroke-miterlimit="10" d="M60.697,29.707
		c0,0.604-0.693,1.268-2.018,1.901l1.075-3.182C60.372,28.867,60.697,29.294,60.697,29.707z"/>
	<path id="straw_1_" fill="none" stroke="#FFFFFF" stroke-width="0.788" stroke-miterlimit="10" d="M64.674,4.722
		c0.13-0.413,0.552-0.521,0.927-0.427c0.354,0.117,0.56,0.532,0.442,0.883c-3.052,9.056-6.098,18.114-9.163,27.165
		c-0.516,0.177-1.075,0.354-1.695,0.531C58.354,23.491,61.51,14.105,64.674,4.722z"/>
	<path id="glass_mouth_2" fill="none" stroke="#F9F6BB" stroke-width="0.788" stroke-miterlimit="10" d="M9.809,29.46
		c0.362-1.174,2.205-1.8,3.204-2.181c6.221-2.373,13.369-2.755,19.948-2.882c0.755-0.015,1.509-0.022,2.265-0.022
		c9.061,0,16.117,1.031,20.476,2.312l-2.224,6.614c-7.709,1.791-15.874,2.01-23.747,1.621c-5.841-0.288-12.584-0.684-17.941-3.309
		C11.094,31.272,9.491,30.492,9.809,29.46z"/>
	<path id="glass_mouth" fill="none" stroke="#F9F6BB" stroke-width="0.788" stroke-miterlimit="10" d="M9.77,32.564v-0.456
		c2.552,1.927,6.143,2.589,9.211,3.139c4.802,0.861,9.703,1.197,14.577,1.268c5.013,0.073,10.049-0.151,15.022-0.813
		c3.927-0.522,8.867-1.121,12.118-3.595v0.456c0,1.813-4.021,2.744-5.286,3.103c-2.361,0.672-4.785,1.104-7.217,1.429
		c-6.104,0.816-12.316,0.97-18.463,0.669c-4.914-0.241-9.923-0.742-14.67-2.098C13.856,35.323,9.77,34.378,9.77,32.564z"/>
	<path id="glass_1_" fill="none" stroke="#F9F6BB" stroke-width="0.788" stroke-miterlimit="10" d="M42.81,111.317
		c-7.576,1.35-16.185,0.932-23.216-2.371c-3.187-1.497-5.952-3.649-6.075-7.354c-0.076-2.265-2.364-63.577-2.449-65.853
		c5.19,2.687,12.154,3.142,18.008,3.463c7.575,0.415,15.339,0.213,22.81-1.189l-2.755,8.147c-7.358-2.518-15.82-2.704-23.428-1.344
		c-3.103,0.554-6.274,1.41-9.014,3.015c-1.708,1.001-3.573,2.516-3.829,4.619c-0.015,0-0.029-0.015-0.044-0.029
		c0.398,16.042,1.713,49.28,1.724,49.86c0.041,2.169,1.657,3.804,3.37,4.925c6.129,4.01,14.811,4.393,21.86,3.72
		c0.95-0.091,1.903-0.214,2.854-0.365l0,0C42.673,110.818,42.727,111.071,42.81,111.317C42.81,111.319,42.81,111.317,42.81,111.317z
		"/>
	<path id="juice" fill="#F9D987" d="M43.02,99.013c-0.098,0.205-0.176,0.462-0.246,0.742c-0.169,0.565-0.267,1.142-0.229,1.72
		c-0.068,1.261-0.004,2.868,0.203,4.836c0.087,0.854-0.019,1.696-0.167,2.709c-0.011,0.072,0,0.144-0.008,0.216
		c-4.256,0.702-8.748,0.589-12.659,0.155c-3.363-0.373-6.812-1.097-9.85-2.636c-1.608-0.814-3.754-2.144-4.025-4.119
		c-0.253-1.841-1.15-32.806-1.63-46.382c2.831,2.871,7.341,4.025,11.171,4.723c5.85,1.066,11.99,1.077,17.85,0.095l-14.215,39.627
		c-1.082,3.016,4.49,3.743,5.494,1.104l15.203-42.442c2.431-0.914,4.286-2.077,5.45-3.374c-0.265,9.398-0.488,18.798-0.705,28.198
		h-1.429c-1.906,0-3.667,1.113-4.488,2.832L43.02,99.013z"/>
	<path id="bread_2" fill="#A58153" d="M47.508,113.232c-1.033,0-1.972-0.428-2.643-1.205c-0.672-0.778-0.973-1.796-0.825-2.794
		c0.156-1.078,0.279-2.053,0.173-3.075c-0.051-0.484-0.09-0.944-0.123-1.391c0.911,0.867,2.123,1.363,3.418,1.363h64.06
		c1.245,0,2.389-0.451,3.277-1.237c-0.014,0.117-0.025,0.228-0.041,0.348c-0.187,1.42-0.142,2.549,0.142,3.554
		c0.293,1.035,0.072,2.178-0.593,3.058c-0.663,0.876-1.679,1.379-2.787,1.379H47.508z"/>
	<path id="bread_1" fill="#A58153" d="M119.513,124.357c-0.663,0.876-1.679,1.379-2.787,1.379H52.668
		c-1.034,0-1.972-0.427-2.643-1.204c-0.673-0.778-0.974-1.796-0.827-2.794c0.129-0.88,0.289-1.978,0.173-3.077
		c-0.051-0.484-0.09-0.944-0.123-1.391c0.912,0.867,2.124,1.363,3.42,1.363h64.058c1.247,0,2.391-0.451,3.28-1.238
		c-0.014,0.117-0.025,0.229-0.04,0.35c-0.189,1.415-0.145,2.545,0.14,3.555C120.399,122.335,120.178,123.478,119.513,124.357z"/>
	<path id="butter" fill="#F9D987" d="M53.102,94.175c-1.294,0.868-2.586,1.735-3.88,2.603c-2.955,1.982,2.998,4.548,4.889,3.727
		c0.961-0.417,1.921-0.833,2.882-1.251c-2.683,2.343,3.587,4.548,5.624,3.352c2.075-1.218,4.149-2.434,6.224-3.652
		c-0.525,0.679-1.049,1.356-1.574,2.035c-1.902,2.458,4.337,4.336,5.993,3.046c2.527-1.967,5.053-3.935,7.58-5.902
		c-0.442,1.121-0.886,2.242-1.328,3.363c-1.095,2.77,5.261,3.534,6.707,2.14c0.681-0.657,1.363-1.313,2.043-1.97
		c-0.716,2.465,5.377,3.604,6.748,1.97c0.918-1.093,1.837-2.187,2.755-3.28c-0.069,0.38-0.138,0.76-0.206,1.14
		c-0.46,2.543,4.647,3.823,6.244,2.539c2.467-1.985,4.936-3.97,7.403-5.955c2.67-2.148-2.759-4.723-5.106-3.699
		c0.321-1.769,0.64-3.539,0.961-5.306c0.505-2.789-5.208-3.926-6.707-2.14c-0.036,0.043-0.072,0.086-0.108,0.129
		c-1.631-1.012-4.922-1.078-5.908-0.129c-0.792,0.764-1.584,1.527-2.376,2.29c0.019-0.05,0.04-0.101,0.059-0.151
		c0.977-2.476-4.846-3.628-6.244-2.539c-0.44,0.341-0.878,0.684-1.317,1.026c-1.315-1.219-4.724-1.689-5.855-1.026
		c-0.278,0.163-0.556,0.326-0.835,0.489c-1.334-0.795-3.324-1.198-4.31-0.77c-1.086,0.471-2.174,0.944-3.261,1.415
		c-1.277-1.042-4.013-1.714-5.069-1.415c-0.915,0.258-1.83,0.517-2.745,0.775c-1.45-0.681-3.334-1.028-4.373-0.495
		c-2.622,1.35-5.244,2.7-7.866,4.05C47.715,91.836,50.719,93.592,53.102,94.175z"/>
</g>
</svg>
