<?xml version="1.0" encoding="utf-8"?>
<!-- Generator: Adobe Illustrator 17.0.0, SVG Export Plug-In . SVG Version: 6.00 Build 0)  -->
<!DOCTYPE svg PUBLIC "-//W3C//DTD SVG 1.1//EN" "http://www.w3.org/Graphics/SVG/1.1/DTD/svg11.dtd">
<svg version="1.1" id="Layer_1" xmlns="http://www.w3.org/2000/svg" xmlns:xlink="http://www.w3.org/1999/xlink" x="0px" y="0px"
	 width="130px" height="130px" viewBox="0 0 130 130" enable-background="new 0 0 130 130" xml:space="preserve">
<g id="global_judging">
	<polygon id="star" fill="#F7B46B" points="109.726,33.942 110.877,44.159 119.945,49.002 110.584,53.254 108.78,63.375 
		101.844,55.787 91.66,57.198 96.734,48.257 92.245,39.008 102.317,41.07 	"/>
	<g id="globe">
		<path fill="#F9D987" d="M43.905,53.08c0.059-0.148-0.113-0.443-0.37-0.035C43.452,53.188,43.835,53.232,43.905,53.08z"/>
		<g>
			<path fill="#F9D987" d="M85.29,66.787c0.015,0.006,0.018,0.006,0.025,0.012c-0.062,0.545-0.168,1.073-0.25,1.611
				c-0.052-0.04-0.062-0.058-0.144-0.108c-0.299-0.262-0.737-0.369-0.905-0.334c-0.457,0.095,0.664,0.907,0.786,1.03
				c0.043,0.042,0.08,0.059,0.182,0.179c-2.987,15.432-16.587,27.174-32.88,27.174c-11.977,0-22.475-6.357-28.398-15.799
				c0.358-0.058,0.698-0.058,0.811-0.18c0.148-0.19,0.303-0.665,0.517-0.942c0.227-0.296,0.481-0.665,0.38-0.852
				c-0.111-0.178,0.296-1.028,0.258-1.225c-0.054-0.198-0.372-0.786,0.178-1.163c0.55-0.422,1.152-1.124,1.178-1.27
				c0.036-0.183,0.481-0.948,0.442-1.328c-0.037-0.388-0.442-0.806-0.698-0.907c-0.262-0.06-0.808-0.174-1.03-0.425
				c-0.227-0.302-0.85-0.57-1.072-0.546c-0.21,0.062-0.582,0.181-0.885-0.059c-0.298-0.179-0.777-0.423-0.959-0.546
				c-0.208-0.179-0.678-0.301-0.905-0.301c-0.226,0-0.185-0.182-0.525,0.301c-0.323,0.426,0,0.573-0.584,0.546
				c-0.593-0.059,0.068-0.065,0.409-0.546c0.329-0.424-0.037-0.665-0.409-0.546c-0.372,0-0.111,0.214-0.702,0.307
				c-0.589,0.095-0.589-0.279-0.221-0.304c0.372-0.06,1.029-0.422,1.029-0.547c0-0.117-0.068-0.544-0.368-0.544
				c-0.303,0-0.219-0.454-0.667-0.931c-0.267-0.294-0.559-0.47-0.867-0.589c-0.262-1.675-0.429-3.387-0.429-5.142
				c0-8.262,3.019-15.822,7.995-21.666c0.059-0.068,0.136-0.106,0.19-0.111c0.244-0.028,0.905-0.071,1.49-0.173
				c0.57-0.143,1.197-0.506,1.408-0.486c0.193,0.025,0.692,0.025,0.545-0.122c-0.171-0.165-0.398-0.506-0.726-0.506
				c-0.34,0-0.032-0.546,0.062-0.546c0.079,0,0.544,0.074,0.516,0.321c-0.023,0.247,0.148,0.564,0.582,0.469
				c0.453-0.096,0.383-0.469,0.303-0.562c-0.089-0.102-0.168-0.346-0.244-0.522c-0.091-0.173-0.065-0.392,0.409-0.443
				c0.464-0.046,1.121,0.193,1.097-0.193c-0.025-0.397,0-0.817,0.133-1.035c0.136-0.218,0.425-0.372,0.272-0.445
				c-0.156-0.068-0.357,0.102-0.519-0.266c-0.162-0.37,0.136-0.642,0.309-0.789c0.06-0.045,0.187-0.176,0.363-0.323
				c5.464-3.872,12.114-6.171,19.304-6.171c9.333,0,17.785,3.844,23.862,10.023c-0.023,0.059-0.029,0.15-0.079,0.165
				c-0.228,0.035-0.483,0.182-0.532-0.15c-0.037-0.333-0.037-0.962-0.302-0.59c-0.263,0.372-0.37,0.372-0.37,0.553
				c0,0.185,0.222,0.369,0.159,0.701c-0.077,0.332-0.077,0.553,0.04,0.553c0.105,0,0.367-0.335,0.695-0.409
				c0.326-0.073,0.917-0.258,0.964,0.071c0.036,0.335,0.403,0.44,0.036,0.589c-0.37,0.148-0.774,0.077-0.851-0.15
				c-0.061-0.222-0.318-0.222-0.579-0.035c-0.266,0.178-0.811,0.845-0.811,0.845s-0.908,0.408-0.993,0.335
				c-0.12-0.068,0.3-0.476,0.567-0.664c0.3-0.182,0.54-0.59,0.426-0.702c-0.107-0.111-0.256-0.808-0.182-0.996
				c0.063-0.182,0.413-0.442,0.052-0.63c-0.369-0.181-0.642-0.405-0.905-0.519c-0.303-0.108-0.656,0.443-0.904,0.596
				c-0.262,0.148-0.222,0.329-0.548,0.369c-0.319,0.037-0.546,0.476,0,0.738c0.548,0.259,0.741,0.44,0.593,0.59
				c-0.17,0.148-0.789-0.071-0.789-0.071s-0.481-0.222-0.786-0.222c-0.303,0-0.666-0.182-0.959-0.219
				c-0.302-0.036-0.904-0.036-1.031,0.111c-0.169,0.148-0.543,0.59-0.785,0.443c-0.303-0.148-0.303-0.296-0.7-0.148
				c-0.429,0.148-0.801-0.113-1.031,0.107c-0.178,0.222-0.058,0.222-0.74,0c-0.698-0.221-0.545,0.148-1.22,0.262
				c-0.664,0.108-1.063-0.113-1.271,0.108c-0.182,0.227-0.426,0.63-0.544,0.369c-0.115-0.255,0.362-0.698,0.177-0.845
				c-0.177-0.148-0.959-0.073-1.064,0.04c-0.113,0.108-0.062,0.516,0.059,0.664c0.059,0.141,0.178,0.738-0.059,0.625
				c-0.204-0.108-0.181-0.483-0.426-0.437c-0.187,0.037-0.469,0.148-0.556,0.222c-0.106,0.073-0.545,0.073-0.663,0.222
				c-0.113,0.148,0.059,0.552-0.178,0.589c-0.178,0.035-0.303,0.182-0.737-0.073c-0.422-0.261-0.422-0.107-0.542-0.034
				c-0.099,0.07-0.664,0.368-0.664,0.034c-0.062-0.329,0.062-0.44-0.258-0.664c-0.321-0.225-0.059-0.222,0.37-0.073
				c0.422,0.148,1.029,0.215,1.807-0.04c0.789-0.258,1.15-0.369,0.789-0.517c-0.31-0.147-0.667-0.295-1.154-0.369
				c-0.546-0.073-1.219-0.073-2.034-0.369c-0.79-0.303-0.997-0.42-1.312-0.479c-0.309-0.077-2.357-0.405-3.305-0.259
				c-0.911,0.148-3.458,0.808-3.618,0.921c-0.153,0.108-0.375,0.551-0.851,0.921c-0.479,0.369-1.365,1.217-2.067,1.366
				c-0.695,0.15-1.513,0.738-1.513,0.887c0,0.148,0.298,0.701,0.221,0.814c-0.071,0.108,0.148,0.667,0.548,0.812
				c0.411,0.148,1.106,0.111,1.149-0.113c0.042-0.222,0.584-0.698,0.63-0.37c0.042,0.333,0.412,0.849,0.329,1.071
				c-0.066,0.221,0,0.443,0.266,0.405c0.255-0.035,1.626-0.326,1.626-0.326s0.44-0.187,0.369-0.482
				c-0.07-0.298,0.482-0.703,0.59-0.812c0.108-0.111,0.516-0.556,0.042-0.7c-0.465-0.15-0.834-0.185-0.318-0.627
				c0.525-0.445,0.851,0,1.515-0.667c0.664-0.664-0.148-0.851,0.557-0.888c0.692-0.04,1.442-0.068,1.283,0.15
				c-0.151,0.222-0.999,0.703-1.481,0.921c-0.483,0.222-0.41,0.627-0.215,0.848c0.178,0.219,0.261,0.738,0.587,0.664
				c0.329-0.071,0.74-0.326,1.109-0.292c0.38,0.037,1.122-0.04,1.225-0.04c0.107,0,0.635,0.519,0.319,0.59
				c-0.303,0.073-0.665,0.04-1.279,0.079c-0.63,0.035-1.328,0.035-1.328,0.148s0.844,0.368,0.545,0.553
				c-0.301,0.178-0.587-0.037-0.956-0.077c-0.372-0.035-0.588,0.482-0.695,0.777c-0.113,0.298,0.178,0.812-0.375,0.63
				c-0.547-0.185-0.959-0.185-1.109-0.111c-0.148,0.071-0.587,0.218-0.959,0.331c-0.368,0.108-0.218-0.184-0.7-0.184
				c-0.476,0-0.476,0-0.476,0l-0.304,0.042c0,0-0.298-0.185-0.326-0.483c-0.042-0.298,0.148-0.623-0.042-0.698
				c-0.185-0.073-0.849,0.035-0.959,0.255c-0.108,0.222-0.222,0.63-0.071,0.812c0.159,0.185,0.59,0.553,0.181,0.44
				c-0.414-0.105-0.919-0.148-1.217,0.077c-0.299,0.221-0.812,0.698-0.812,0.698s-0.915,0.073-0.915,0.298s0,0.519-0.329,0.553
				c-0.332,0.04-0.783,0.148-1.219,0.222c-0.442,0.073-0.408,0.254-0.919,0.298c-0.516,0.04-0.584,0.261-0.102,0.331
				c0.474,0.069,1.214,0.37,1.248,0.698c0.049,0.329-0.035,0.703-0.215,1.033c-0.125,0.23-0.891,0.073-1.328,0.073
				c-0.44,0-1.328-0.148-1.696,0c-0.372,0.15-0.3,0.888-0.182,1.22c0.113,0.329-0.04,0.516-0.182,0.627
				c-0.153,0.111-0.182,0.44,0,0.593c0.182,0.148,0.323,0.476,0.482,0.516c0.148,0.04,0.624-0.108,0.806,0.074
				c0.182,0.185,0.369,0.627,0.476,0.516c0.114-0.111,0.262-0.59,0.44-0.481c0.178,0.113,0.633-0.035,0.961-0.073
				c0.335-0.037,0.513-0.405,0.848-0.59c0.333-0.178,0.148-0.178,0.042-0.409c-0.107-0.221,0.327-0.476,0.588-0.738
				c0.258-0.258,0.74-0.04,0.851-0.335c0.108-0.295,0.15-0.806,0.433-0.774c0.301,0.037,0.703,0.218,0.964,0.218
				c0.259,0,0.806-0.405,0.965-0.476c0.145-0.073,0.692-0.04,0.774,0.296c0.071,0.332,0.701,0.737,0.851,0.811
				c0.15,0.073,1.109,0.369,1.263,0.48c0.148,0.111,0.363,0.444,0.433,0.738c0.071,0.298,0.333,0.298,0.377,0.037
				c0.035-0.256-0.182-0.738,0.068-0.703c0.255,0.04,0.551-0.071,0.551-0.071s-0.709-0.48-0.965-0.59
				c-0.255-0.111-0.737-0.329-0.959-0.698c-0.215-0.368-0.783-0.445-0.738-0.808c0.04-0.369,0.547-0.15,0.845,0.148
				c0.3,0.296,1.029,0.698,1.288,0.959c0.258,0.256,0.664,0.37,0.783,0.703c0.114,0.327,0.437,0.695,0.546,0.845
				c0.111,0.147,0.48,0.964,0.593,1.146c0.111,0.182,0.48-0.035,0.667-0.182c0.178-0.148,0.522-0.222,0.546-0.516
				c0.044-0.3-0.44-0.519-0.589-0.63c-0.149-0.111,0.37-0.222,0.546-0.37c0.182-0.148,0.522-0.408,0.667-0.182
				c0.156,0.222,0.07,1.106,0.156,1.254c0.062,0.15,0.803,0.369,0.959,0.556c0.148,0.182,0.789,0.255,0.885,0.148
				c0.115-0.108,0.703,0.073,0.85,0.107c0.182,0.04,0.59-0.062,0.908-0.141c0.312-0.074,0.588-0.301,0.546,0.182
				c-0.046,0.476-0.148,1.214-0.523,1.585c-0.374,0.369-0.221,0.545-0.583,0.545c-0.179,0-0.301,0-0.423,0.062
				c-0.12-0.187-0.303-0.34-0.547-0.281c-0.423,0.108-1.027,0.108-1.39,0.551c-0.372,0.442-0.516,0.476-0.562,0.329
				c-0.059-0.147,1.04-0.786,0.908-0.962c-0.166-0.185-1.028-0.111-1.516-0.111c-0.481,0-0.884-0.296-1.259-0.369
				c-0.366-0.073-0.848,0.369-1.214,0.738c-0.371,0.37-0.627,0.111-0.961,0.111c-0.331,0-0.961-0.48-0.961-0.48
				s-0.627-0.261-0.884-0.261c-0.262,0-0.777-0.476-0.926-0.476c-0.144,0-0.545-0.335-0.255-0.482
				c0.296-0.148,0.588,0.148,0.296-0.666c-0.296-0.815-0.959-0.63-1.214-0.517c-0.256,0.112-2.108,0.071-2.244,0.071
				c-0.139,0-1.219,0.369-1.549,0.519c-0.326,0.148-0.916,0.331-1.07,0.403c-0.15,0.073-0.919-0.148-1.259,0.042
				c-0.437,0.244-0.845,0.624-0.959,0.624c-0.111,0-0.437,0.261-0.664,0.817c-0.221,0.547,0.045,1.029-0.369,1.214
				c-0.412,0.185-1.152,0.595-1.442,0.888c-0.3,0.292-0.667,1.331-1.03,1.811c-0.368,0.479,0,0.915,0.059,1.216
				c0.073,0.296,0.335,0.849-0.059,1.368c-0.411,0.522-0.368,0.778-0.546,0.812c-0.179,0.04,0.182,0.178,0.255,0.55
				c0.062,0.374-0.332,0.742,0.369,1.07c0.698,0.329,1.029,0.633,1.214,1.067c0.185,0.44,1.115,1.177,1.115,1.177
				s0.667,0.596,0.998,0.855c0.329,0.261,0.442,0.111,0.519-0.146c0.068-0.261,0.523-0.302,1.027-0.302
				c0.525,0,0.897,0.12,1.402,0.049c0.521-0.059,1.029-0.418,1.219-0.482c0.182-0.058,0.802-0.476,1.279-0.179
				c0.482,0.305,0.417,0.698,0.666,0.965c0.255,0.255,0.692,0.106,1.027-0.156c0.329-0.262,0.182-0.148,0.587,0.058
				c0.411,0.212,0.593,0.434,0.225,0.789c-0.372,0.327-0.153,0.906-0.372,1.39c-0.221,0.531-0.182,0.59,0.218,0.789
				c0.411,0.219,1.149,1.633,1.371,1.876c0.219,0.255-0.071,0.999,0.185,1.442c0.255,0.426,0.516,0.737,0.215,0.957
				c-0.301,0.195-0.806,0.633-0.851,1.371c-0.035,0.743,0.159,1.274,0.301,1.515c0.15,0.282,0.516,0.954,0.692,1.214
				c0.185,0.281,0.417,0.907,0.442,1.288c0.04,0.422-0.068,0.899,0.114,1.106c0.182,0.216,0.296,0.546,0.624,0.852
				c0.335,0.301,0.442,0.904,0.442,0.904s0.114,0.263,0.148,0.666c0.04,0.424,0.068,0.664,0.437,0.85
				c0.369,0.18,0.63,0.222,0.817,0.059c0.178-0.178,1.106-0.225,1.583-0.178c0.487,0.059,1.027-0.195,1.513-0.546
				c0.482-0.314,1.181-1.218,1.442-1.476c0.261-0.28,0.847-0.747,0.785-1.029c-0.059-0.301-0.227-0.59,0.062-0.757
				c0.301-0.155,1.001-0.423,1.027-0.665c0.062-0.182-0.261-1.15-0.334-1.274c-0.059-0.177,0.181-0.544,0.481-0.904
				c0.304-0.412,1.251-0.667,1.393-0.79c0.178-0.179,0.546-0.786,0.66-1.271c0.062-0.497-0.178-1.03,0-1.283
				c0.182-0.303,0.062-0.482-0.3-0.786c-0.307-0.303-0.269-1.15-0.37-1.322c-0.087-0.182-0.055-0.907,0.182-1.03
				c0.206-0.059,0.69-0.785,1.028-1.149c0.301-0.303,1.151-1.392,1.526-1.404c0.426-0.059,1.029-0.667,1.05-1.03
				c0.062-0.3,1.111-1.611,1.151-1.876c0.059-0.303,0.482-1.274,0.301-1.452c-0.178-0.219-1.632,0.302-1.806,0.422
				c-0.177,0.062-0.662,0.371-1.27,0.302c-0.546-0.057-0.301-0.546-0.38-0.725c-0.059-0.219-0.664-1.065-0.787-1.102
				c-0.178-0.037-0.563-0.482-0.785-0.922c-0.181-0.442-0.426-0.995-0.755-1.328c-0.301-0.333-0.482-1.106-0.787-1.627
				c-0.302-0.519-0.546-1.183-0.785-1.659c-0.062-0.119-0.137-0.232-0.182-0.34c0.3-0.086,0.817-0.239,0.907-0.029
				c0.058,0.256,0.471,0.808,0.545,1.219c0.063,0.406,0.47,0.256,0.546,0.625c0.058,0.375,0.423,1.259,0.545,1.367
				c0.182,0.111,0.789,0.703,0.908,0.925c0.102,0.222,0.3,0.516,0.368,1.072c0.114,0.545,0.188,1.286,0.545,1.39
				c0.301,0.111,1.271-0.182,1.516-0.301c0.178-0.107,1.39-0.697,1.875-0.736c0.424-0.037,0.547-0.335,1.031-0.443
				c0.544-0.108,0.964-0.517,1.332-0.811c0.374-0.296,0.787-1.027,0.959-1.291c0.177-0.256,0.544-0.44,0.301-0.731
				c-0.182-0.303-0.95-0.738-1.272-0.787c-0.303-0.04-0.303-0.516-0.425-0.516c-0.182,0-0.182,0.254-0.546,0.442
				c-0.374,0.182-0.789,0.545-1.03,0.476c-0.292-0.068,0.06-0.258-0.304-0.59c-0.422-0.329-0.544-0.405-0.544-0.664
				c0-0.262-0.79-0.731-0.908-1.101c-0.06-0.37,0.546-0.886,0.78-0.546c0.179,0.329,0.303,0.845,0.786,1.067
				c0.44,0.222,0.908,0.593,1.15,0.664c0.182,0.073,0.79-0.403,0.921-0.329c0.182,0.062,0.547,0.738,0.908,0.851
				c0.3,0.108,1.39,0.148,1.633,0.148c0.18,0,0.906,0.036,1.149-0.182c0.179-0.215,0.282-0.215,0.422-0.215
				c0.183,0,0.548,0.664,0.79,0.738c0.301,0.065,0.747,0.037,0.663,0.519c-0.059,0.476,0.182,0.884,0.442,0.921
				c0.301,0.035,0.891-0.556,0.891-0.556s0,0.926-0.059,1.259c-0.058,0.326,0.424,1.551,0.424,1.551s0.546,1.151,0.665,1.399
				c0.179,0.258,0.787,1.027,0.787,1.39c0,0.303,0.06,0.85,0.303,0.85c0.178,0,0.422-0.573,0.665-0.959
				c0.301-0.363,0.301-0.908,0.424-1.274c0.073-0.369,0.073-1.035,0.073-1.291c0-0.261,0.179-0.481,0.777-0.703
				c0.546-0.221,0.908-0.844,1.317-1.18c0.423-0.356,0.369-0.908,1.268-0.908c0.908,0,0.789,0,1.031-0.227
				c0.218-0.215,0.423-0.369,0.545,0.04c0.062,0.409,0.75,0.998,0.857,1.149c0.059,0.148,0.301,0.553,0.301,1.001
				c-0.06,0.437,0.062,0.956,0.198,0.956c0.178,0,0.544-0.63,0.544-0.63s0.789-0.547,0.789,0.043
				c-0.061,0.586,0.06,1.214,0.06,1.583c0,0.153,0.119,0.393,0.294,0.601c-0.055,0.182-0.033,0.305-0.062,0.547
				C85.153,66.094,85.149,66.606,85.29,66.787z"/>
			<path fill="#F9D987" d="M64.799,51.309c0.221,0.147,0.298,0.368,0.442,0.589c0.151,0.222,0.405,0.148,0.587,0.329
				c0.179,0.184-0.515,0.409-0.215,0.63c0.295,0.222,0.437,1.106,0.479,1.333c0.037,0.215-0.812,0.329-1.073,0.296
				c-0.258-0.04-1.031-0.296-1.291-0.37c-0.26-0.073-0.405-0.998-0.058-0.959c0.319,0.035,0.408-0.068,0.774-0.409
				c0.381-0.334-0.545-0.483-0.794-0.551c-0.255-0.073-0.786-0.891-0.904-1.146c-0.18-0.262-0.06-0.664,0.422-0.964
				c0.198-0.148,0.789,0.181,1.15,0c0.301-0.182,0.573-0.41,0.665-0.477c0.107-0.073,0.908,0.108,0.948,0.329
				c0.101,0.222,0.546,0.547,0.426,0.664c-0.182,0.113-0.793,0.222-1.028,0c-0.182-0.222-0.789,0.04-0.789,0.443
				C64.396,51.462,64.581,51.167,64.799,51.309z"/>
			<path fill="#F9D987" d="M54.61,51.939c-0.224-0.073,0.074-0.516,0.296-0.664c0.219-0.148,0.476-0.517,0.701-0.885
				c0.22-0.369,0.519-0.408,0.7-0.369c0.182,0.035,0.589,0.698,0.7,0.919c0.111,0.221,0.48-0.073,0.63-0.148
				c0.144-0.073,0.369-0.303,0.405-0.476c0.04-0.182,0.369-0.301,0.737-0.301c0.368,0,0.062,0.301-0.221,0.368
				c-0.262,0.071-0.06,0.225,0.329,0.37c0.445,0.148,0.85,0.553,1.332,0.808c0.482,0.263,0.553,0.78,0.255,0.85
				c-0.292,0.071-1.168,0.15-1.511,0.108c-0.333-0.037-0.739-0.368-1.219-0.44c-0.477-0.073-1.071-0.043-1.259,0.218
				c-0.184,0.263-0.844,0.15-1.15,0.15c-0.301,0-0.663,0.37-0.736,0.221C54.61,52.682,54.836,52.017,54.61,51.939z"/>
			<path fill="#F9D987" d="M55.865,43.74c0.185-0.519,1.219,0.113,1.034,0.369C56.717,44.37,55.74,44.097,55.865,43.74z"/>
			<path fill="#F9D987" d="M57.305,70.248c0.185,0.303-0.406,1.274-0.737,1.186c-0.327-0.079-0.219-0.926-0.111-1.116
				C56.566,70.135,57.21,70.095,57.305,70.248z"/>
			<path fill="#F9D987" d="M66.05,39.61c0.415,0.222,0.987,0.312,1.262,0.04c0.222-0.218,0.037-0.593-0.15-0.63
				c-0.182-0.04-0.303-0.333,0.179-0.59c0.479-0.255,1.002-0.59,1.551-0.664c0.551-0.073,1.809-0.113,2.247,0
				c0.423,0.113,1.111-0.482,1.272-0.738c0.181-0.255-0.567-0.443-0.79-0.148c-0.227,0.296-1.271,0.215-1.513,0.148
				c-0.222-0.073-2.001,0.296-2.357,0.296c-0.364,0-0.516,0.443-1.03,0.667c-0.524,0.222-1.219,0.553-1.479,0.666
				c-0.267,0.108-0.522,0.551-0.3,0.625C65.168,39.348,65.647,39.383,66.05,39.61z"/>
			<path fill="#F9D987" d="M46.675,53.08c0.187-0.256-0.148-0.63-0.329-0.63c-0.338,0-0.516,0.553-0.301,0.738
				C46.265,53.38,46.49,53.346,46.675,53.08z"/>
			<path fill="#F9D987" d="M48.334,54.084c0.185,0.069,0.332,0.296,0.479,0.329c0.154,0.04,0.63,0,0.485-0.369
				c-0.144-0.369-0.485-0.369-0.593-0.369c-0.108,0-0.59-0.113-0.775,0C47.791,53.755,48.149,54.009,48.334,54.084z"/>
			<path fill="#F9D987" d="M38.442,48.097c0.303,0.04,0.63-0.182,0.885-0.292c0.269-0.114,0.641-0.332,0.641-0.667
				c0-0.329-0.062-0.624-0.225-0.774c-0.148-0.148-0.417-0.185-0.627-0.148c-0.335,0.059-0.369,0.405-0.59,0.405
				s-0.479,0.071-0.42,0.333c0.074,0.255,0.227,0.44,0,0.546C37.888,47.616,38.143,48.064,38.442,48.097z"/>
			<path fill="#F9D987" d="M40.25,46.514c0.37,0.148,1.153,0.298,0.851,0.443c-0.298,0.153-0.817,0.55-0.888,0.777
				s0.627,0.443,0.627,0.443s-0.222,0.262-0.037,0.335c0.185,0.068,0.298-0.262,0.59-0.262c0.29,0,0.882,0.178,1.178,0.178
				c0.3,0,0.777-0.405,0.738-0.664c-0.035-0.258-0.403-0.667-0.738-0.811c-0.326-0.148-0.698-0.814-0.92-0.965
				c-0.222-0.148,0.222-0.516-0.04-0.774c-0.262-0.262-0.443-0.218-0.738-0.408c-0.304-0.179-0.557,0.04-0.737,0.262
				c-0.185,0.219-0.42-0.04-0.644,0.035c-0.303,0.101-0.179,0.483-0.035,0.664C39.618,45.959,39.882,46.361,40.25,46.514z"/>
			<path fill="#F9D987" d="M77.428,66.231c-0.231,0.101-0.425,1.361,0,1.515c0.441,0.153,0.702-0.584,0.556-0.776
				C77.836,66.787,77.759,66.078,77.428,66.231z"/>
			<path fill="#F9D987" d="M64.025,75.714c-0.463-0.132-0.515,0.481-0.884,0.889c-0.375,0.415-0.789,0.737-0.92,0.698
				c-0.154-0.041-0.962,0.261-0.704,0.812c0.259,0.545,0.222,1.107-0.041,1.37c-0.26,0.258,0.222,0.995,0.155,1.39
				c-0.074,0.405,0.107,0.666,0.622,0.666c0.522,0,0.704-0.182,0.926-0.666c0.215-0.481,0.255-0.956,0.47-1.39
				c0.228-0.427,0.414-1.274,0.524-1.496c0.111-0.202,0.327-0.908,0.299-1.322C64.427,76.308,64.287,75.791,64.025,75.714z"/>
			<path fill="#F9D987" d="M35.781,41.834c-0.19-0.182-0.664-0.303-0.891-0.318c-0.222-0.022-0.443,0.176-0.931,0.176
				c-0.489,0-0.812,0.193-1.01,0c-0.198-0.195-1.015-0.301-1.089-0.176c-0.1,0.165-0.295,0.171-0.1,0.516
				c0.202,0.339,0.349,0.541,0.519,0.516c0.182-0.022,0.774-0.059,0.839,0.148c0.071,0.198,0.272,0.368,0.687,0.249
				c0.42-0.125,0.767-0.198,0.86-0.346c0.096-0.148,0.763-0.176,0.763-0.176S35.971,42.005,35.781,41.834z"/>
		</g>
	</g>
	<g id="male">
		<circle fill="#F7B46B" cx="23.404" cy="69.051" r="10.679"/>
		<path fill="#A58153" d="M26.053,81.78l-1.136,2.051h-3.028l-1.144-2.067c-5.956,0.321-10.691,5.238-10.691,11.274v7.383H36.42
			v-7.383C36.42,87.111,31.856,82.259,26.053,81.78z M23.404,98.775l-4.196-3.496l3.018-10.283h2.356l3.018,10.283L23.404,98.775z"
			/>
	</g>
	<g id="female">
		<g>
			<path fill="#A58153" d="M88.847,86.062l-4.296-3.966h-1.489l-4.828,4.113l2.322-4.072c0,0-0.09,0.009-0.133,0.014
				c-5.644,0.633-10.034,5.408-10.034,11.22v7.383h26.365v-7.383c0-5.587-4.055-10.22-9.382-11.134
				c-0.065-0.011-0.196-0.032-0.196-0.032L88.847,86.062z"/>
		</g>
		<path fill="#F7B46B" d="M94.416,69.676c-0.15-3.027-1.019-5.806-3.243-7.927c-2.022-1.928-4.609-3.044-7.43-3.045
			c-2.709-0.001-5.183,1.001-7.165,2.817c-2.814,2.575-3.31,5.922-3.536,9.537c-0.21,3.355-0.4,6.716-0.758,10.059
			c-0.13,1.21-0.215,2.558-0.663,3.706c0.718,0,1.935-1.027,3.161-1.843c1.608-1.07,3.495-1.795,5.479-2.173
			c4.074-0.778,8.614-0.153,12.106,2.172c1.1,0.733,2.082,1.368,2.884,1.485C94.216,79.635,94.657,74.577,94.416,69.676z"/>
		<path fill="#FFFFFF" d="M83.572,77.311c-4.089,0-7.454-3.097-7.881-7.073c5.506-1.579,9.307-6.808,10.351-8.385
			c3.167,1.039,5.456,4.015,5.456,7.53C91.499,73.762,87.95,77.311,83.572,77.311z"/>
	</g>
</g>
</svg>
