<?xml version="1.0" encoding="utf-8"?>
<!-- Generator: Adobe Illustrator 17.0.0, SVG Export Plug-In . SVG Version: 6.00 Build 0)  -->
<!DOCTYPE svg PUBLIC "-//W3C//DTD SVG 1.1//EN" "http://www.w3.org/Graphics/SVG/1.1/DTD/svg11.dtd">
<svg version="1.1" id="Layer_1" xmlns="http://www.w3.org/2000/svg" xmlns:xlink="http://www.w3.org/1999/xlink" x="0px" y="0px"
	 width="130px" height="130px" viewBox="0 0 130 130" enable-background="new 0 0 130 130" xml:space="preserve">
<g id="impact">
	<polygon id="blast" fill="#FCF6CA" points="57.402,52.903 76.534,33.47 69.06,59.188 98.665,57.992 73.84,75.627 100.75,96.257 
		69.355,90.58 77.432,112.111 59.791,97.154 47.238,121.68 40.059,92.077 12.546,102.244 28.391,83.106 6.563,80.121 28.994,72.634 
		8.664,49.319 41.851,57.089 45.433,28.686 	"/>
	<g id="falling">
		<path fill="#9B8631" d="M78.801,21.539L95.448,6.197L80.107,22.844c-0.345,0.376-0.931,0.399-1.305,0.053
			c-0.375-0.345-0.399-0.93-0.053-1.305C78.765,21.574,78.783,21.556,78.801,21.539z"/>
		<path fill="#9B8631" d="M95.352,28.478l19.926-18.621L96.657,29.783c-0.347,0.373-0.932,0.392-1.305,0.044
			c-0.373-0.348-0.392-0.933-0.045-1.305C95.322,28.507,95.337,28.491,95.352,28.478z"/>
		<path fill="#9B8631" d="M106.098,40.318l16.899-15.593l-15.594,16.898c-0.345,0.376-0.931,0.398-1.305,0.053
			c-0.375-0.346-0.399-0.93-0.052-1.305C106.062,40.352,106.081,40.334,106.098,40.318z"/>
	</g>
	<path id="meteorite" fill="#9B8631" d="M52.817,41.222c0,0,6.473-13.974,16.132-9.453s10.378,5.754,10.378,5.754
		s10.275,3.699,12.638,4.521c2.363,0.822,12.536,8.631,9.556,19.831c-3.185,4.829-10.275,13.049-11.2,14.899
		s-9.453,8.939-19.934,4.11c-8.837-6.062-21.167-11.058-20.345-27.261C51.584,43.379,52.817,41.222,52.817,41.222z"/>
	<g id="meteorite_holes">
		<g>
			<g>
				<g>
					<path fill="#FFFFFF" d="M103.333,57.559c0.007-0.26,0.007-0.519-0.003-0.78h-0.002c-0.001-0.016,0-0.031,0-0.047
						c-0.092-1.661-0.588-3.695-1.398-5.726c-0.751-1.884-1.861-3.949-3.126-5.348c-1.573-1.822-3.84-3.584-5.129-4.175
						c-2.247-1.027-3.236-1.267-4.382-1.547c-0.955-0.233-2.039-0.496-4.235-1.344c-3.137-1.209-6.084-2.812-8.684-4.226
						c-0.831-0.451-1.634-0.888-2.408-1.294c-3.788-1.988-6.202-3.047-7.96-3.45c-0.061-0.015-0.123-0.027-0.188-0.04
						c-0.679-0.141-1.262-0.184-1.788-0.137l0.001,0.008c-1.376,0.036-2.864,0.348-4.328,0.932
						c-1.846,0.737-3.449,1.813-4.524,3.036v-0.001c-0.005,0.005-0.008,0.011-0.013,0.016c-0.012,0.014-0.025,0.026-0.036,0.038
						c-0.031,0.036-0.056,0.073-0.085,0.11c-1.683,1.915-3.085,5.152-4.28,9.905c-0.866,3.437-1.502,6.255-1.79,11.241
						c-0.439,7.553,2.74,14.104,9.193,18.944l0.962,0.723c5.53,4.168,12.324,9.29,20.347,9.29c0.213,0,0.432-0.022,0.647-0.03
						c0.021,0.001,0.038,0.004,0.058,0.004c0,0,0,0,0.001,0c0.188,0,0.385-0.019,0.577-0.032c0.143-0.009,0.283-0.006,0.427-0.019
						l-0.001-0.004c1.16-0.114,2.378-0.411,3.578-0.891c1.694-0.676,3.179-1.639,4.245-2.737l0.002,0.003
						c0.039-0.039,0.072-0.082,0.111-0.121c0.073-0.077,0.149-0.155,0.217-0.233c0.02-0.025,0.037-0.048,0.058-0.073
						c1.216-1.334,2.227-2.785,3.283-4.318c1.368-1.991,2.783-4.05,4.842-6.102c3.633-3.624,5.616-7.521,5.799-11.34
						C103.325,57.716,103.331,57.64,103.333,57.559z M95.936,46.622c1.122,1.062,2.355,3.009,3.305,5.396
						c0.968,2.425,1.412,4.722,1.311,6.266c-0.756-0.535-2.194-2.213-3.447-5.357C95.827,49.72,95.739,47.494,95.936,46.622z
						 M61.004,33.869c2.153-0.858,4.263-1.051,5.754-0.661c-0.076,0.395-0.321,0.866-0.745,1.357
						c-0.822,0.952-2.16,1.843-3.671,2.445c-1.26,0.502-2.581,0.78-3.715,0.78c-0.979,0-1.772-0.209-2.187-0.552
						C57.277,35.966,58.91,34.703,61.004,33.869z M78.457,78.536c0.822-0.953,2.159-1.845,3.67-2.445
						c1.261-0.504,2.581-0.78,3.716-0.78c0.681,0,1.269,0.102,1.705,0.279c-0.744,1.392-2.486,2.825-4.782,3.742
						c-1.843,0.733-3.659,0.982-5.081,0.797C77.68,79.694,77.943,79.13,78.457,78.536z M95.869,67.477
						c-2.212,2.207-3.756,4.452-5.117,6.433c-0.199,0.289-0.395,0.57-0.59,0.852c-0.768-1.143-2.298-1.789-4.32-1.789
						c-1.446,0-3.03,0.325-4.583,0.944c-1.873,0.748-3.498,1.846-4.573,3.091c-1.122,1.3-1.557,2.651-1.263,3.862
						c-5.527-1.291-10.433-4.981-14.886-8.338l-0.966-0.727c-5.879-4.41-8.659-10.109-8.263-16.941
						c0.279-4.779,0.89-7.493,1.724-10.805c0.515-2.052,1.073-3.795,1.666-5.244c0.843,0.844,2.206,1.314,3.927,1.314
						c1.445,0,3.029-0.327,4.58-0.946c1.875-0.747,3.5-1.844,4.576-3.089c0.811-0.94,1.26-1.907,1.339-2.83
						c1.189,0.552,2.47,1.205,3.757,1.881c0.765,0.401,1.558,0.833,2.377,1.278c2.663,1.448,5.682,3.09,8.961,4.354
						c2.337,0.901,3.498,1.184,4.522,1.433c1.073,0.262,1.92,0.469,3.963,1.402c0.386,0.175,0.984,0.566,1.648,1.073
						c-1.46,1.593-0.842,5.528,0.585,9.111c1.186,2.973,3.262,6.395,5.431,6.937C99.568,63,98.044,65.308,95.869,67.477z"/>
				</g>
			</g>
		</g>
		<path fill="#FFFFFF" d="M86.934,51.044c-1.733-2.314-3.989-3.75-5.884-3.75c-0.702,0-1.345,0.205-1.859,0.59
			c-1.961,1.468-1.589,5.045,0.863,8.317c1.734,2.313,3.989,3.75,5.885,3.75c0,0,0,0,0.001,0c0.701,0,1.344-0.205,1.857-0.59
			c1.036-0.777,1.45-2.146,1.17-3.86C88.73,54.057,88.008,52.473,86.934,51.044z M81.927,54.8c-1.744-2.327-1.956-4.578-1.332-5.046
			c0.107-0.079,0.26-0.121,0.456-0.121c0.195,0,0.431,0.048,0.684,0.13c0.938,0.566,1.9,1.428,2.732,2.537
			c1.376,1.836,2.029,3.829,1.845,5.231c-0.099,0.048-0.218,0.081-0.37,0.081H85.94C85.022,57.611,83.375,56.731,81.927,54.8z"/>
		<path fill="#FFFFFF" d="M60.274,51.245c-1.441,0-2.771,0.426-3.843,1.229c-3.415,2.561-3.414,8.353,0.002,12.911
			c2.243,2.991,5.519,4.851,8.551,4.851l0,0c1.441,0,2.771-0.427,3.842-1.23c3.415-2.562,3.414-8.354-0.003-12.913
			C66.582,53.103,63.305,51.245,60.274,51.245z M67.424,67.135c-0.427,0.32-0.92,0.528-1.46,0.646
			c-2.197-0.448-4.495-1.92-6.222-4.221c-2.322-3.096-2.916-6.766-1.774-9.298c0.649-0.444,1.42-0.678,2.305-0.678
			c2.31,0,4.869,1.501,6.678,3.913C69.596,61.022,69.807,65.347,67.424,67.135z"/>
	</g>
</g>
</svg>
