<?xml version="1.0" encoding="utf-8"?>
<!-- Generator: Adobe Illustrator 17.0.0, SVG Export Plug-In . SVG Version: 6.00 Build 0)  -->
<!DOCTYPE svg PUBLIC "-//W3C//DTD SVG 1.1//EN" "http://www.w3.org/Graphics/SVG/1.1/DTD/svg11.dtd">
<svg version="1.1" id="Layer_1" xmlns="http://www.w3.org/2000/svg" xmlns:xlink="http://www.w3.org/1999/xlink" x="0px" y="0px"
	 width="130px" height="130px" viewBox="0 0 130 130" enable-background="new 0 0 130 130" xml:space="preserve">
<g id="laptop">
	<path id="base" fill="#F7B46B" d="M73.346,92.423v1.192c0,0.659-0.533,1.192-1.192,1.192H57.846c-0.659,0-1.192-0.533-1.192-1.192
		v-1.192H5.384v2.385c0,0,0,3.577,3.577,3.577h112.078c3.577,0,3.577-3.577,3.577-3.577v-2.385H73.346z"/>
	<path id="screen" fill="#F9D987" d="M106.731,31.615H23.269c-1.977,0-3.577,1.601-3.577,3.577v1.192v48.885
		c0,1.976,1.6,3.577,3.577,3.577h1.192h81.078h1.192c1.974,0,3.577-1.601,3.577-3.577V36.384v-1.192
		C110.308,33.216,108.707,31.615,106.731,31.615z M105.539,84.077H24.461V36.384h81.078V84.077z"/>
</g>
</svg>
