<?xml version="1.0" encoding="utf-8"?>
<!-- Generator: Adobe Illustrator 17.0.0, SVG Export Plug-In . SVG Version: 6.00 Build 0)  -->
<!DOCTYPE svg PUBLIC "-//W3C//DTD SVG 1.1//EN" "http://www.w3.org/Graphics/SVG/1.1/DTD/svg11.dtd">
<svg version="1.1" id="Layer_1" xmlns="http://www.w3.org/2000/svg" xmlns:xlink="http://www.w3.org/1999/xlink" x="0px" y="0px"
	 width="130px" height="130px" viewBox="0 0 130 130" enable-background="new 0 0 130 130" xml:space="preserve">
<path id="net_connection" fill="#F7B46B" d="M48.266,93.648c-3.533-7.936-5.586-16.825-5.914-26.053h46.62
	c-0.328,9.228-2.381,18.118-5.921,26.053H48.266z M85.189,29.02c5.273-2.611,10.342-4.768,15.007-6.321
	c-8.363-6.842-18.769-11.281-30.18-12.188C76.128,15.457,81.229,21.783,85.189,29.02z M80.374,31.12
	c-3.835-6.842-8.796-12.735-14.715-17.242C59.74,18.375,54.78,24.279,50.945,31.12H80.374z M71.865,36.331H48.292
	c-2.814,6.294-4.638,13.188-5.461,20.374c2.949-2.407,5.971-4.773,9.025-7.05C58.328,44.871,65.118,40.353,71.865,36.331z
	 M108.538,31.12c-1.209-1.527-2.506-2.981-3.872-4.367c-3.46,0.985-7.406,2.433-11.781,4.367H108.538z M82.291,36.331
	c-8.259,4.45-17.477,10.218-27.334,17.524c-3.887,2.876-7.493,5.721-10.875,8.53h44.876c-0.335-9.228-2.393-18.118-5.941-26.053
	H82.291z M17.101,89.855c0.657,1.282,1.282,2.575,2.043,3.799h23.479c-3.168-7.852-5.039-16.429-5.419-25.329
	C28.382,76.245,21.692,83.602,17.101,89.855z M70.089,119.488c15.563-1.256,29.305-9.035,38.469-20.629h-22.14
	C82.34,107.003,76.774,114.043,70.089,119.488z M61.293,10.512c-15.585,1.235-29.331,9.014-38.512,20.608h22.151
	C49.022,22.981,54.587,15.947,61.293,10.512z M50.908,98.859c3.835,6.857,8.806,12.792,14.751,17.303
	c5.941-4.511,10.916-10.442,14.751-17.303H50.908z M88.675,36.331c3.267,8.061,5.185,16.893,5.499,26.053h26.069
	c-0.453-9.525-3.34-18.404-8.071-26.053H88.675z M88.7,93.648h23.491c4.72-7.649,7.608-16.528,8.056-26.053H94.183
	C93.87,76.754,91.962,85.582,88.7,93.648L88.7,93.648z M44.905,98.859H22.77c9.166,11.594,22.896,19.373,38.465,20.629
	C54.54,114.043,48.975,107.003,44.905,98.859z M37.22,61.41c0.412-8.801,2.272-17.299,5.419-25.079h-23.49
	c-4.731,7.649-7.618,16.528-8.071,26.053h25.011C36.459,62.061,36.844,61.738,37.22,61.41z M30.373,67.595h-19.29
	c0.281,5.93,1.594,11.562,3.616,16.841C18.972,78.996,24.344,73.275,30.373,67.595z M18.076,109.551
	c-3.965,0.41-6.743-0.156-7.832-1.626c-1.615-2.173-0.349-6.982,3.71-13.496c-1.522-2.569-2.767-4.721-2.918-4.976
	c-6.076,8.983-8.535,16.784-4.981,21.583c1.912,2.565,5.148,3.862,9.645,3.862c0.922,0,1.897-0.064,2.923-0.168
	c1.428-0.145,2.475-1.428,2.314-2.865C20.79,110.437,19.519,109.395,18.076,109.551z M123.899,23.726
	c-3.06-4.127-9.556-4.632-17.909-2.663l4.007,3.856c0.151,0.162,0.297,0.328,0.443,0.505c4.783-0.761,8.035-0.281,9.27,1.402
	c1.251,1.693,0.521,4.7-0.323,6.93c-0.507,1.355,0.177,2.85,1.527,3.366c1.333,0.5,2.85-0.177,3.356-1.527
	C126.145,30.589,126.02,26.603,123.899,23.726L123.899,23.726z"/>
</svg>
