<?xml version="1.0" encoding="utf-8"?>
<!-- Generator: Adobe Illustrator 17.0.0, SVG Export Plug-In . SVG Version: 6.00 Build 0)  -->
<!DOCTYPE svg PUBLIC "-//W3C//DTD SVG 1.1//EN" "http://www.w3.org/Graphics/SVG/1.1/DTD/svg11.dtd">
<svg version="1.1" id="Layer_1" xmlns="http://www.w3.org/2000/svg" xmlns:xlink="http://www.w3.org/1999/xlink" x="0px" y="0px"
	 width="130px" height="130px" viewBox="0 0 130 130" enable-background="new 0 0 130 130" xml:space="preserve">
<g id="people_x27_s_choice">
	<g id="male_2">
		<path fill="#F7B46B" d="M41.556,68.033c-0.012,0.211-0.032,0.422-0.032,0.635c0,6.22,5.042,11.261,11.261,11.261
			c6.22,0,11.261-5.042,11.261-11.261c0-0.215-0.019-0.424-0.032-0.635H41.556z"/>
		<path fill="#A58153" d="M64.046,64.446c0-6.22-5.042-11.261-11.261-11.261c-6.22,0-11.261,5.042-11.261,11.261h-3.05v2.111h3.254
			h22.114h3.254v-2.111H64.046z"/>
		<path fill="#F9D987" d="M46.204,81.602l-6.541,2.018c-1.534,0.474-2.581,1.893-2.581,3.499v13.222h9.122V81.602z"/>
		<path fill="#F9D987" d="M59.367,81.602v18.74h9.122V87.119c0-1.607-1.047-3.025-2.581-3.499L59.367,81.602z"/>
	</g>
	<polygon id="star_2_" fill="#F9D987" points="112.163,29.658 113.377,40.431 122.94,45.538 113.069,50.022 111.166,60.695 
		103.852,52.692 93.113,54.181 98.464,44.752 93.73,34.999 104.351,37.174 	"/>
	<g id="male_2_">
		<circle fill="#F7B46B" cx="21.136" cy="66.68" r="11.261"/>
		<path fill="#A58153" d="M23.931,80.103l-1.197,2.162H19.54l-1.206-2.18C12.053,80.424,7.06,85.609,7.06,91.974v7.785h27.801
			v-7.785C34.862,85.724,30.05,80.608,23.931,80.103z M21.136,98.024l-4.424-3.687l3.182-10.843h2.484l3.182,10.843L21.136,98.024z"
			/>
	</g>
	<g id="female_2_">
		<g>
			<path fill="#A58153" d="M90.147,84.618l-4.53-4.182h-1.57l-5.091,4.337l2.448-4.294c0,0-0.095,0.01-0.141,0.015
				c-5.951,0.668-10.581,5.703-10.581,11.832v7.785h27.801v-7.785c0-5.892-4.276-10.777-9.893-11.741
				c-0.068-0.011-0.206-0.034-0.206-0.034L90.147,84.618z"/>
		</g>
		<path fill="#F7B46B" d="M96.019,67.339c-0.158-3.192-1.074-6.123-3.42-8.359c-2.133-2.033-4.861-3.209-7.835-3.211
			c-2.856-0.001-5.465,1.056-7.555,2.971c-2.967,2.716-3.49,6.245-3.729,10.057c-0.221,3.538-0.422,7.082-0.8,10.607
			c-0.137,1.276-0.226,2.697-0.699,3.908c0.757,0,2.041-1.083,3.334-1.944c1.696-1.128,3.686-1.893,5.777-2.292
			c4.296-0.821,9.084-0.162,12.765,2.29c1.16,0.773,2.196,1.442,3.042,1.566C95.809,77.841,96.274,72.506,96.019,67.339z"/>
		<path fill="#FFFFFF" d="M84.584,75.39c-4.312,0-7.86-3.265-8.31-7.458c5.806-1.665,9.815-7.179,10.915-8.842
			c3.34,1.095,5.754,4.234,5.754,7.941C92.944,71.647,89.201,75.39,84.584,75.39z"/>
	</g>
</g>
</svg>
