<?xml version="1.0" encoding="utf-8"?>
<!-- Generator: Adobe Illustrator 17.0.0, SVG Export Plug-In . SVG Version: 6.00 Build 0)  -->
<!DOCTYPE svg PUBLIC "-//W3C//DTD SVG 1.1//EN" "http://www.w3.org/Graphics/SVG/1.1/DTD/svg11.dtd">
<svg version="1.1" id="Layer_1" xmlns="http://www.w3.org/2000/svg" xmlns:xlink="http://www.w3.org/1999/xlink" x="0px" y="0px"
	 width="130px" height="130px" viewBox="0 0 130 130" enable-background="new 0 0 130 130" xml:space="preserve">
<g id="presentation">
	<g id="presenter">
		<path fill="#DCC359" d="M48.219,60.801c-0.706-0.746-1.657-1.123-2.609-1.123c-0.887,0-1.773,0.326-2.468,0.982l-4.332,4.116
			L37.517,61.9v0.001L37.501,61.9c0,0.004-0.006,0.007-0.006,0.009l-0.01-0.019l0.003,0.031c-0.056-0.3-1.608-8.693-7.349-8.693
			h-0.053H28.28H12.419c-5.829,0-9.486,4.95-9.486,9.932v23.325c-0.142,2.28,1.504,3.417,3.137,3.417
			c1.631,0,3.268-1.139,3.268-3.417V65.186h1.708v59.089c-0.142,3.07,2.089,4.573,4.261,4.573c2.203,0,4.42-1.547,4.42-4.573V89.808
			h1.423v34.468c0,3.026,2.24,4.573,4.453,4.573c2.182,0,4.371-1.503,4.228-4.573V65.186h1.204l3.306,7.204
			c0.481,1.056,1.442,1.773,2.58,1.995c0.229,0.044,0.46,0.057,0.689,0.057c0.909,0,1.795-0.35,2.468-0.988l8.001-7.574
			C49.52,64.517,49.583,62.241,48.219,60.801z"/>
	</g>
	<g id="board">
		<path fill="#9B8631" d="M77.081,2.139h0.855v0.363c-0.026,0.053-0.122,0.216-0.398,0.216c-0.28,0-0.417-0.204-0.455-0.273V2.139
			H77.081z"/>
		<path fill="#9B8631" d="M77.537,3.004c0.046,0,0.074-0.017,0.114-0.023v3.996h-0.285V2.967C77.423,2.981,77.47,3.004,77.537,3.004
			z"/>
		<path fill="#9B8631" d="M79.504,2.94l19.002,3.468h-1.507l-0.508,0.569H77.935V2.89c0.199-0.124,0.273-0.307,0.278-0.319
			l0.003-0.78C78.7,2.819,79.495,2.938,79.504,2.94z"/>
		<rect x="77.08" y="1.854" fill="#9B8631" width="0.855" height="0.142"/>
		<path fill="#9B8631" d="M56.869,6.408h-0.455L75.415,2.94c0.01-0.001,0.917-0.127,1.382-1.353v0.921l0.013,0.027
			c0.006,0.011,0.094,0.182,0.276,0.315h-0.004v4.127H57.484L56.869,6.408z"/>
		<path fill="#9B8631" d="M28.736,8.396c-0.309,0-0.571-0.391-0.571-0.854c0-0.463,0.262-0.854,0.571-0.854s0.571,0.391,0.571,0.854
			C29.307,8.006,29.045,8.396,28.736,8.396z"/>
		<path fill="#9B8631" d="M29.588,7.974c0.04-0.135,0.067-0.278,0.067-0.431c0-0.1-0.026-0.188-0.044-0.28h0.79v0.712H29.588z"/>
		<g>
			<path fill="#FCF6CA" d="M126.156,6.341c-0.347,0-0.64,0.263-0.797,0.636h-0.743h-1.139h-22.643l-0.615-0.569h-1.231L79.517,2.854
				c-0.01-0.001-0.848-0.115-1.298-1.255l0.001-0.457C78.22,1.064,78.157,1,78.078,1c-0.044,0-0.081,0.023-0.105,0.056l-0.007,0.001
				c0.001,0.003,0.001,0.006,0.003,0.009c-0.017,0.023-0.031,0.048-0.031,0.078v0.569h-0.855V1.144c0-0.078-0.064-0.142-0.142-0.142
				c-0.08,0-0.144,0.064-0.144,0.142v0.144c-0.411,1.417-1.383,1.567-1.395,1.568L55.93,6.408h-2.283l-0.508,0.569h-21.6h-1.139
				h-0.868c-0.157-0.373-0.448-0.636-0.797-0.636c-0.507,0-0.919,0.539-0.919,1.201c0,0.663,0.413,1.203,0.919,1.203
				c0.297,0,0.551-0.198,0.719-0.487h0.946h0.712v43.83c0.569,0.186,1.139,0.43,1.708,0.717V9.112h89.376v59.347H47.298
				l-1.053,0.995h76.771l0.003-0.142h0.03v0.285H46.146l-0.451,0.427h-0.016l-0.663,0.64l-1.279,1.21h79.313v0.144h1.567v-0.712
				v-0.144v-0.996v-0.142v-0.854h-0.712V8.257h0.712h0.821c0.168,0.289,0.42,0.487,0.719,0.487c0.507,0,0.919-0.539,0.919-1.203
				C127.075,6.881,126.664,6.341,126.156,6.341z"/>
			<polygon fill="#9B8631" points="46.203,69.74 123.05,69.74 123.05,70.025 45.901,70.025 			"/>
			<polygon fill="#9B8631" points="123.049,71.118 44.678,71.18 45.75,70.167 123.048,70.167 123.048,71.118 			"/>
			<polygon fill="#9B8631" points="44.093,71.732 44.505,71.345 123.049,71.307 123.049,71.734 44.093,71.734 			"/>
			<rect x="123.193" y="71.307" fill="#9B8631" width="1.279" height="0.568"/>
			<rect x="123.193" y="70.167" fill="#9B8631" width="1.279" height="0.996"/>
			<polygon fill="#9B8631" points="124.472,69.313 124.472,70.025 123.193,70.025 123.193,69.598 123.193,69.313 123.904,69.313 			
				"/>
			<path fill="#FCF6CA" d="M124.616,7.974V7.262h0.665c-0.017,0.093-0.043,0.181-0.043,0.28c0,0.152,0.027,0.296,0.067,0.431
				H124.616z"/>
			<path fill="#FCF6CA" d="M126.156,8.396c-0.31,0-0.571-0.391-0.571-0.854c0-0.463,0.262-0.854,0.571-0.854
				c0.309,0,0.571,0.391,0.571,0.854C126.727,8.006,126.466,8.396,126.156,8.396z"/>
		</g>
	</g>
	<path id="stand" fill="#FCF6CA" d="M109.335,124.841l-0.094,0.114L80.259,95.138c0.127-0.208,0.034-0.349-0.235-0.349h-2.089
		V73.013h1.19l1.02-1.052l-0.394-0.014l-0.744,0.783h-2.929l-0.763-0.759l-0.417-0.011l1.063,1.053h0.979v21.776H74.89
		c-0.209,0-0.324,0.093-0.31,0.238l-29.094,29.887l-0.09-0.118l-1.106,1.087c0,0-0.363,0.407,0.011,0.934
		c0.349,0.49,0.777,0.196,0.777,0.196l1.141-1.13l-0.044-0.058c2.004-1.99,3.488-2.528,3.502-2.532l0.047-0.017L75.671,96.62
		l-0.048-0.047c0.168,0.118,0.36,0.208,0.542,0.208h0.642v19.986h-0.268l0.023,1.39c0,0,0.023,0.66,0.777,0.66
		c0.736,0,0.754-0.653,0.754-0.653l0.041-1.406l-0.201,0.001V96.78h0.579c0.238,0,0.511-0.138,0.702-0.313l-0.159,0.155
		l25.912,26.659l0.034,0.034l0.047,0.017c0.016,0.006,1.479,0.537,3.463,2.498l-0.001,0.001l1.139,1.227
		c0,0,0.403,0.278,0.777-0.196c0.384-0.487-0.047-0.935-0.047-0.935L109.335,124.841z M49.497,122.919
		c-0.28,0.105-1.694,0.709-3.576,2.57l-0.182-0.241l29.039-29.834l0.589,0.926L49.497,122.919z M105.234,122.96L79.363,96.344
		l0.65-0.865l28.962,29.797l-0.194,0.233C106.914,123.667,105.512,123.068,105.234,122.96z"/>
	<circle id="head" fill="#F1E08F" cx="20.466" cy="43.454" r="7.58"/>
	<polygon points="37.48,61.892 37.487,61.91 37.484,61.901 	"/>
</g>
</svg>
