<?xml version="1.0" encoding="utf-8"?>
<!-- Generator: Adobe Illustrator 17.0.0, SVG Export Plug-In . SVG Version: 6.00 Build 0)  -->
<!DOCTYPE svg PUBLIC "-//W3C//DTD SVG 1.1//EN" "http://www.w3.org/Graphics/SVG/1.1/DTD/svg11.dtd">
<svg version="1.1" id="Layer_1" xmlns="http://www.w3.org/2000/svg" xmlns:xlink="http://www.w3.org/1999/xlink" x="0px" y="0px"
	 width="130px" height="130px" viewBox="0 0 130 130" enable-background="new 0 0 130 130" xml:space="preserve">
<g id="product">
	<g id="box_2_1_">
		<rect x="17.896" y="45.556" fill="#FCF6CA" width="42" height="44"/>
		<polygon fill="#DCC359" points="43.896,57.556 43.896,99.517 59.896,89.464 59.896,45.556 		"/>
		<polygon fill="#F1E08F" points="2.896,57.556 2.896,99.517 17.896,89.464 17.896,45.556 		"/>
		<rect x="2.896" y="57.556" fill="#DCC359" width="41" height="42"/>
	</g>
	<polygon id="box_face_3" fill="#DCC359" points="39.896,49.211 39.896,103.53 59.896,90.73 59.755,36.556 	"/>
	<polygon id="box_face_2" fill="#FCF6CA" points="114.294,90.889 59.896,90.556 59.755,36.556 114.314,36.288 	"/>
	<g id="box">
		<g>
			<rect x="51.896" y="36.556" fill="#F7B46B" width="41" height="41"/>
			<rect x="66.896" y="26.556" fill="#F7B46B" width="41" height="41"/>
			<polygon fill="#F7B46B" points="92.896,36.556 92.896,77.556 107.896,67.556 107.896,26.556 			"/>
			<polygon fill="#F7B46B" points="51.896,36.556 51.896,77.556 66.896,67.556 66.896,26.556 			"/>
		</g>
	</g>
	<polygon id="box_face_1" fill="#F1E08F" points="94.371,103.681 39.896,103.64 39.896,49.211 94.77,49.052 	"/>
	<polygon id="box_cover_1" fill="#9B8631" points="39.896,49.211 94.77,49.052 83.746,71.719 30.354,71.661 	"/>
	<polygon id="box_face_4" fill="#DCC359" points="94.77,49.052 94.371,103.681 114.294,90.889 114.314,36.288 	"/>
	<polygon id="box_cover_2" fill="#9B8631" points="94.77,49.052 114.294,36.302 126.646,52.638 107.387,67.447 	"/>
</g>
</svg>
