<?xml version="1.0" encoding="utf-8"?>
<!-- Generator: Adobe Illustrator 17.0.0, SVG Export Plug-In . SVG Version: 6.00 Build 0)  -->
<!DOCTYPE svg PUBLIC "-//W3C//DTD SVG 1.1//EN" "http://www.w3.org/Graphics/SVG/1.1/DTD/svg11.dtd">
<svg version="1.1" id="Layer_1" xmlns="http://www.w3.org/2000/svg" xmlns:xlink="http://www.w3.org/1999/xlink" x="0px" y="0px"
	 width="130px" height="130px" viewBox="0 0 130 130" enable-background="new 0 0 130 130" xml:space="preserve">
<g id="software">
	<g id="css_coding">
		<path fill="#F7B46B" d="M83.721,25.536L67.56,24.772l-0.911-2.345l11.101-12.254l1.574,4.048l-6.952,7.143l9.787,0.149
			L83.721,25.536z"/>
		<path fill="#F7B46B" d="M90.123,2.569l0.535,23.377l-4.717,1.834L85.406,4.403L90.123,2.569z"/>
		<path fill="#F7B46B" d="M96.511,15.934l7.117-6.721l-9.952-0.572l-1.574-4.048l16.463,1.54l0.911,2.345L98.074,19.955
			L96.511,15.934z"/>
	</g>
	<path id="floppy" fill="#F9D987" d="M90.413,73.683V57.74h-69.89v69.691h26.413c0-0.715,0.579-1.293,1.294-1.293
		c0.714,0,1.293,0.579,1.293,1.293h11.647c0-0.715,0.579-1.293,1.294-1.293s1.294,0.579,1.294,1.293h26.654v-50.33h-1.842v-3.418
		H90.413z M23.604,77.049V61.271c0-0.44,0.356-0.797,0.797-0.797h28.872c0.44,0,0.797,0.356,0.797,0.797v15.778
		c0,0.44-0.356,0.796-0.797,0.796H24.4C23.96,77.845,23.604,77.488,23.604,77.049z M58.773,122.535c0,1.825-1.479,3.305-3.304,3.305
		s-3.304-1.48-3.304-3.305v-11.753c0-1.824,1.479-3.304,3.304-3.304s3.304,1.479,3.304,3.304V122.535z M55.621,102.818
		c-5.59,0-10.121-4.532-10.121-10.121c0-5.59,4.531-10.121,10.121-10.121s10.12,4.531,10.12,10.121
		C65.741,98.286,61.211,102.818,55.621,102.818z M68.264,97.973c-0.953,0-1.725-0.773-1.725-1.725c0-0.953,0.773-1.725,1.725-1.725
		s1.725,0.773,1.725,1.725C69.989,97.201,69.217,97.973,68.264,97.973z"/>
	<g id="illustrator">
		<path fill="#FFFFFF" d="M77.443,54.761c-0.091,0.034-0.189,0.053-0.292,0.055c-0.485,0.009-0.884-0.378-0.892-0.862l-0.165-9.514
			c-0.007-0.371,0.22-0.704,0.566-0.836c0.002-0.001,0.003-0.001,0.004-0.002c0.346-0.129,0.735-0.028,0.974,0.252l6.195,7.265
			c0.315,0.369,0.27,0.924-0.098,1.238c-0.372,0.313-0.922,0.271-1.238-0.098l-4.607-5.404l0.123,7.068
			C78.021,54.305,77.782,54.635,77.443,54.761z"/>
		<path fill="#FFFFFF" d="M78.945,51.391l-1.55,0.578c-0.454,0.169-0.96-0.062-1.129-0.516c-0.169-0.454,0.062-0.96,0.516-1.129
			l1.55-0.578c0.454-0.169,0.96,0.062,1.129,0.516C79.63,50.716,79.399,51.222,78.945,51.391z"/>
		<path fill="#FFFFFF" d="M86.214,51.49c-0.454,0.169-0.96-0.062-1.129-0.516l-1.687-4.525c-0.169-0.454,0.062-0.96,0.516-1.129
			c0.454-0.169,0.96,0.062,1.129,0.516l1.687,4.525C86.899,50.815,86.668,51.321,86.214,51.49z"/>
		<path fill="#FFFFFF" d="M83.627,44.548c-0.22,0.082-0.46,0.072-0.671-0.024c-0.211-0.097-0.38-0.283-0.458-0.492
			c-0.082-0.22-0.072-0.46,0.013-0.667c0.204-0.425,0.752-0.629,1.173-0.438c0.211,0.097,0.376,0.272,0.458,0.492
			c0.078,0.209,0.072,0.46-0.024,0.671C84.022,44.3,83.836,44.47,83.627,44.548z"/>
		<path fill="#F9D987" d="M75.291,62.123c-0.205,0.076-0.437,0.078-0.652-0.015l-4.143-1.777c-0.221-0.095-0.393-0.276-0.477-0.5
			l-7.232-19.391c-0.169-0.454,0.062-0.96,0.516-1.129l17.083-6.371c0.454-0.169,0.96,0.062,1.129,0.516l1.073,2.878
			c0.169,0.454-0.062,0.96-0.516,1.129c-0.454,0.169-0.96-0.062-1.129-0.516l-0.767-2.056l-15.438,5.758l6.794,18.217l3.798,1.629
			c0.445,0.191,0.652,0.707,0.461,1.152C75.693,61.875,75.507,62.042,75.291,62.123z"/>
		<path fill="#F9D987" d="M93.31,55.402l-18.019,6.72c-0.454,0.169-0.96-0.062-1.129-0.516l-6.039-16.192
			c-0.169-0.454,0.062-0.96,0.516-1.129c0.454-0.169,0.96,0.062,1.129,0.516l5.732,15.37l16.374-6.107l-6.601-17.7l-17.197,6.413
			c-0.214,0.08-0.45,0.073-0.659-0.019l-4.161-1.824c-0.443-0.194-0.646-0.712-0.451-1.156c0.194-0.443,0.712-0.644,1.156-0.451
			l3.834,1.681l17.686-6.596c0.454-0.169,0.96,0.062,1.129,0.516l7.214,19.344C93.995,54.728,93.763,55.233,93.31,55.402z"/>
	</g>
	<g id="photoshop">
		<path fill="#FFFFFF" d="M42.997,31.255c-0.461-0.181-0.688-0.703-0.506-1.163l3.246-8.247c0.181-0.461,0.703-0.688,1.163-0.506
			c0.461,0.181,0.688,0.703,0.506,1.163l-3.246,8.247C43.979,31.21,43.458,31.437,42.997,31.255z"/>
		<path fill="#FFFFFF" d="M46.561,29.025c-0.461-0.181-0.688-0.703-0.506-1.163c0.181-0.461,0.703-0.688,1.163-0.506
			c0.946,0.372,2.018-0.094,2.39-1.04c0.373-0.947-0.093-2.02-1.039-2.392l-2.326-0.916c-0.461-0.181-0.688-0.703-0.506-1.163
			c0.181-0.461,0.703-0.688,1.163-0.506l2.326,0.916c1.866,0.735,2.786,2.852,2.051,4.719C50.544,28.839,48.427,29.76,46.561,29.025
			z"/>
		<path fill="#FFFFFF" d="M51.853,34.744c-0.92-0.362-1.6-1.202-1.649-2.18c-0.024-0.495,0.358-0.916,0.852-0.94
			c0.494-0.023,0.915,0.356,0.94,0.852c0.017,0.355,0.462,0.683,0.893,0.664c0.447-0.024,0.671-0.4,0.69-0.597
			c0.013-0.134-0.005-0.483-0.586-0.767c-1.503-0.732-1.711-1.997-1.6-2.629c0.09-0.969,1.012-2.08,2.383-2.147
			c0.647-0.031,1.318,0.188,1.835,0.602c0.562,0.448,0.901,1.09,0.934,1.763c0.024,0.495-0.358,0.916-0.852,0.94
			c-0.493,0.022-0.917-0.357-0.94-0.852c-0.01-0.216-0.169-0.374-0.261-0.448c-0.178-0.144-0.413-0.223-0.628-0.212
			c-0.452,0.023-0.675,0.398-0.694,0.594c-0.013,0.135,0.004,0.484,0.585,0.768c1.503,0.732,1.71,1.998,1.6,2.629
			c-0.091,0.967-1.012,2.08-2.381,2.148C52.582,34.949,52.2,34.88,51.853,34.744z"/>
		<path fill="#F7B46B" d="M36.864,35.592c-0.208-0.082-0.385-0.239-0.485-0.457l-1.936-4.181c-0.103-0.223-0.11-0.478-0.021-0.706
			l7.749-19.685c0.181-0.461,0.703-0.688,1.163-0.506l17.342,6.827c0.461,0.181,0.688,0.703,0.506,1.163l-1.15,2.922
			c-0.181,0.461-0.703,0.688-1.163,0.506c-0.461-0.181-0.688-0.703-0.506-1.163l0.821-2.087l-15.673-6.17l-7.28,18.493l1.775,3.833
			c0.208,0.45,0.012,0.983-0.437,1.192C37.338,35.678,37.084,35.678,36.864,35.592z"/>
		<path fill="#F7B46B" d="M55.156,42.792l-18.292-7.201c-0.461-0.181-0.688-0.703-0.506-1.163l6.471-16.438
			c0.181-0.461,0.703-0.688,1.163-0.506s0.688,0.703,0.506,1.163l-6.142,15.603l16.623,6.544l7.073-17.968l-17.457-6.872
			c-0.217-0.086-0.392-0.252-0.488-0.465l-1.918-4.229c-0.204-0.451-0.005-0.982,0.447-1.187c0.451-0.204,0.981-0.003,1.187,0.447
			l1.767,3.898l17.954,7.068c0.461,0.181,0.688,0.703,0.506,1.163l-7.73,19.638C56.138,42.747,55.617,42.974,55.156,42.792z"/>
	</g>
</g>
</svg>
