<?xml version="1.0" encoding="utf-8"?>
<!-- Generator: Adobe Illustrator 17.0.0, SVG Export Plug-In . SVG Version: 6.00 Build 0)  -->
<!DOCTYPE svg PUBLIC "-//W3C//DTD SVG 1.1//EN" "http://www.w3.org/Graphics/SVG/1.1/DTD/svg11.dtd">
<svg version="1.1" id="Layer_1" xmlns="http://www.w3.org/2000/svg" xmlns:xlink="http://www.w3.org/1999/xlink" x="0px" y="0px"
	 width="130px" height="130px" viewBox="0 0 130 130" enable-background="new 0 0 130 130" xml:space="preserve">
<g id="two_pin">
	<path id="plug" fill="none" stroke="#A3A3A3" stroke-width="3.357" stroke-miterlimit="10" d="M97.325,37.263L80.818,20.755
		c-0.033-0.033-3.91-3.747-11.46-3.747H45.113c-1.366,1.218-2.873,1.835-4.49,1.835c-2.947,0-5.105-2.125-5.195-2.215
		c-0.01-0.01-1.505-1.453-3.364-1.453c-1.065,0-2.091,0.49-3.059,1.454l-0.916,0.916l-8.252-8.253L9.292,19.839l8.253,8.25
		l-0.917,0.917c-3.09,3.09-0.322,6.095,0.005,6.43c0.122,0.12,1.261,1.293,1.857,3.079c0.556,1.668,0.722,4.131-1.483,6.599v24.243
		c0,7.556,3.715,11.43,3.752,11.466l16.503,16.502c2.183,2.182,4.549,3.288,7.03,3.288c4.27,0,7.608-3.258,7.64-3.289l45.393-45.39
		C97.619,51.633,104.543,44.477,97.325,37.263z"/>
	<g id="pin2">
		
			<rect x="58.076" y="94.597" transform="matrix(-0.7071 -0.7071 0.7071 -0.7071 51.1281 222.0446)" fill="#A3A3A3" width="26.951" height="11.672"/>
		<path fill="#A3A3A3" d="M86.882,107.517l-8.253,8.253l3.105,3.104c0,0,4.126,4.127,8.253,0c4.126-4.126,0-8.253,0-8.253
			L86.882,107.517z"/>
	</g>
	<g id="pin_1">
		
			<rect x="86.958" y="65.71" transform="matrix(-0.7071 -0.7071 0.7071 -0.7071 120.8612 193.1533)" fill="#A3A3A3" width="26.952" height="11.671"/>
		<path fill="#A3A3A3" d="M115.769,78.63l-8.253,8.253l3.105,3.105c0,0,4.127,4.126,8.253,0c4.127-4.127,0-8.252,0-8.252
			L115.769,78.63z"/>
	</g>
</g>
</svg>
