<?xml version="1.0" encoding="utf-8"?>
<!-- Generator: Adobe Illustrator 17.0.0, SVG Export Plug-In . SVG Version: 6.00 Build 0)  -->
<!DOCTYPE svg PUBLIC "-//W3C//DTD SVG 1.1//EN" "http://www.w3.org/Graphics/SVG/1.1/DTD/svg11.dtd">
<svg version="1.1" id="Layer_1" xmlns="http://www.w3.org/2000/svg" xmlns:xlink="http://www.w3.org/1999/xlink" x="0px" y="0px"
	 width="130px" height="130px" viewBox="0 0 130 130" enable-background="new 0 0 130 130" xml:space="preserve">
<g id="winners">
	<path id="head_3" fill="#F9D987" d="M103.294,35.95c-3.716,0-6.738-3.023-6.738-6.739c0-3.717,3.023-6.74,6.738-6.74
		c3.717,0,6.739,3.023,6.739,6.74C110.033,32.927,107.01,35.95,103.294,35.95z"/>
	<path id="_x33_rd" fill="#F9D987" d="M115.382,104.609c-0.269,0-0.511-0.182-0.575-0.453l-0.072-0.298
		c-0.071-0.217-0.197-0.662-0.368-1.271c-1.102-3.922-4.4-15.659-11.074-28.13c-6.676,12.472-9.975,24.208-11.076,28.131
		c-0.173,0.61-0.297,1.055-0.379,1.312l-0.059,0.254c-0.073,0.311-0.384,0.507-0.691,0.444c-0.019-0.004-0.037-0.008-0.054-0.014
		c-0.005-0.001-0.008-0.002-0.013-0.004c-0.307-0.086-0.488-0.401-0.412-0.71l0.154-0.759c2.415-13.603,3.797-28.337,3.892-41.487
		c-0.238-2.482-0.742-7.533-0.929-8.459c-0.586-2.902-0.162-6.925,0.183-8.336c0.94-3.833,2.611-5.665,6.169-6.76l0.005,0.008
		c0.049-0.028,0.102-0.051,0.155-0.065c0.07-0.02,0.129-0.033,0.188-0.046c0.298-0.075,0.507-0.124,0.714-0.167
		c0.166-0.032,0.321-0.059,0.478-0.084c0.196-0.031,0.398-0.057,0.601-0.077c0.173-0.017,0.341-0.03,0.514-0.039
		c0.378-0.018,0.754-0.019,1.117,0c0.173,0.009,0.341,0.022,0.513,0.039c0.206,0.021,0.408,0.047,0.608,0.078
		c0.154,0.024,0.31,0.05,0.471,0.082c0.211,0.044,0.418,0.092,0.619,0.146c0.127,0.027,0.195,0.043,0.251,0.058
		c0.015,0.002,0.028,0.006,0.043,0.011l0.121,0.043c3.59,1.108,5.262,2.94,6.2,6.772c0.344,1.413,0.767,5.436,0.185,8.336
		c-0.189,0.927-0.694,5.978-0.933,8.519c0.098,13.244,1.442,27.579,3.888,41.395l0.146,0.736c0.024,0.063,0.034,0.129,0.034,0.2
		c0,0.327-0.265,0.592-0.592,0.592C115.4,104.608,115.39,104.609,115.382,104.609z"/>
	<path id="head_2" fill="#F9D987" d="M27.241,32.569c-3.716,0-6.738-3.023-6.738-6.739c0-3.717,3.023-6.74,6.738-6.74
		c3.717,0,6.739,3.023,6.739,6.74C33.98,29.546,30.957,32.569,27.241,32.569z"/>
	<path id="_x32_nd" fill="#F9D987" d="M39.329,101.228c-0.269,0-0.511-0.182-0.575-0.453l-0.072-0.298
		c-0.071-0.217-0.196-0.662-0.368-1.271c-1.102-3.922-4.4-15.659-11.074-28.13c-6.676,12.472-9.975,24.208-11.076,28.131
		c-0.173,0.61-0.297,1.055-0.379,1.312l-0.059,0.254c-0.073,0.311-0.384,0.507-0.691,0.444c-0.019-0.004-0.037-0.008-0.054-0.014
		c-0.005-0.001-0.008-0.002-0.013-0.004c-0.307-0.086-0.488-0.401-0.412-0.71l0.154-0.759c2.415-13.603,3.797-28.337,3.892-41.487
		c-0.238-2.482-0.742-7.533-0.929-8.459c-0.586-2.902-0.162-6.925,0.183-8.336c0.94-3.833,2.611-5.665,6.169-6.76l0.005,0.008
		c0.049-0.028,0.102-0.051,0.155-0.065c0.07-0.02,0.129-0.033,0.188-0.046c0.298-0.075,0.507-0.124,0.714-0.167
		c0.166-0.032,0.321-0.059,0.478-0.084c0.196-0.031,0.398-0.057,0.601-0.077c0.173-0.017,0.341-0.03,0.514-0.039
		c0.378-0.018,0.754-0.019,1.117,0c0.173,0.009,0.341,0.022,0.513,0.039c0.206,0.021,0.408,0.047,0.608,0.078
		c0.154,0.024,0.31,0.05,0.471,0.082c0.211,0.044,0.418,0.092,0.619,0.146c0.127,0.027,0.195,0.043,0.251,0.058
		c0.015,0.002,0.028,0.006,0.043,0.011l0.121,0.043c3.59,1.108,5.262,2.94,6.2,6.772c0.344,1.413,0.767,5.436,0.185,8.336
		c-0.189,0.927-0.694,5.978-0.933,8.519c0.098,13.244,1.442,27.579,3.888,41.395l0.146,0.736c0.024,0.063,0.034,0.129,0.034,0.2
		c0,0.327-0.265,0.592-0.592,0.592C39.347,101.226,39.337,101.228,39.329,101.228z"/>
	<path id="head_1" fill="#F9D987" d="M64.999,22.067c-3.717,0-6.74-3.024-6.74-6.74s3.024-6.739,6.74-6.739
		c3.714,0,6.738,3.023,6.738,6.739C71.736,19.044,68.714,22.067,64.999,22.067z"/>
	<path id="winner" fill="#F9D987" d="M77.089,90.725c-0.266,0-0.508-0.18-0.574-0.449l-0.073-0.296
		c-0.071-0.219-0.193-0.655-0.361-1.25c-1.1-3.923-4.394-15.66-11.082-28.156c-6.681,12.48-9.976,24.216-11.077,28.139
		c-0.17,0.605-0.295,1.046-0.376,1.304l-0.062,0.257c-0.076,0.312-0.387,0.502-0.703,0.437c-0.007-0.002-0.014-0.004-0.022-0.006
		c-0.008-0.001-0.015-0.004-0.024-0.006c-0.309-0.084-0.495-0.399-0.419-0.711l0.148-0.73c2.419-13.589,3.804-28.333,3.898-41.515
		c-0.238-2.482-0.742-7.533-0.93-8.459c-0.516-2.56-0.25-5.991,0.057-7.714l-0.115-0.236c-3.761-8.458-13.835-22.69-13.937-22.833
		c-0.179-0.251-0.134-0.598,0.102-0.795c0.236-0.199,0.585-0.182,0.801,0.037c0.111,0.112,11.02,11.128,18.684,16.707
		c0.244-0.092,0.494-0.18,0.761-0.263l0.006,0.009c0.038-0.022,0.078-0.041,0.12-0.054c0.013-0.005,0.027-0.009,0.04-0.013
		c0.062-0.018,0.122-0.031,0.182-0.044c0.301-0.075,0.505-0.124,0.714-0.167c0.163-0.032,0.317-0.058,0.473-0.083
		c0.2-0.031,0.401-0.057,0.603-0.078c0.176-0.018,0.343-0.028,0.514-0.038c0.378-0.021,0.753-0.02,1.122,0
		c0.173,0.009,0.342,0.021,0.511,0.038c0.206,0.021,0.406,0.047,0.606,0.078c0.159,0.025,0.315,0.051,0.47,0.082
		c0.214,0.044,0.42,0.094,0.623,0.147c0.152,0.033,0.215,0.047,0.277,0.065c0.007,0.002,0.013,0.004,0.02,0.006
		c0.037,0.011,0.075,0.025,0.105,0.04c0.297,0.091,0.559,0.182,0.805,0.276c7.667-5.58,18.571-16.596,18.682-16.708
		c0.217-0.22,0.567-0.234,0.801-0.037c0.236,0.198,0.281,0.545,0.103,0.795C88.46,8.645,78.387,22.878,74.635,31.317
		c-0.011,0.021-0.058,0.116-0.123,0.253c0.304,1.725,0.568,5.16,0.054,7.714c-0.187,0.927-0.691,5.978-0.932,8.519
		c0.097,13.157,1.483,27.912,3.909,41.484l0.125,0.64c0.024,0.065,0.036,0.134,0.036,0.206c0,0.33-0.281,0.617-0.603,0.592
		C77.097,90.725,77.093,90.725,77.089,90.725z"/>
	<path id="podium" fill="#F7B46B" d="M119.526,122.432H10.473c-1.681,0-3.048-1.367-3.048-3.047v-15.174
		c0-1.68,1.367-3.047,3.048-3.047c0,0,34.488,0.004,34.941,0.007v-7.397c0-1.681,1.367-3.048,3.048-3.048h33.077
		c1.681,0,3.048,1.367,3.048,3.048v10.869h34.942c1.681,0,3.047,1.367,3.047,3.048v11.694
		C122.574,121.064,121.207,122.432,119.526,122.432z"/>
</g>
</svg>
